<svg width="48" height="48" viewBox="0 0 48 48" fill="none" xmlns="http://www.w3.org/2000/svg">
<path d="M22.7702 30.55C24.9922 30.542 29.8502 30.524 29.7942 27.434C29.7402 24.274 25.0742 24.464 22.8002 24.558C22.5462 24.568 22.3202 24.578 22.1362 24.58L22.2402 30.554C22.3902 30.55 22.5702 30.55 22.7702 30.55V30.55Z" fill="#E9983D"/>
<path d="M22.5344 21.8439C24.3884 21.8419 28.4344 21.8379 28.3864 19.0279C28.3344 16.1539 24.4484 16.3239 22.5504 16.4079C22.3364 16.4179 22.1504 16.4259 21.9944 16.4279L22.0884 21.8459L22.5344 21.8439Z" fill="#E9983D"/>
<path fill-rule="evenodd" clip-rule="evenodd" d="M18.1912 47.2815C31.0512 50.4875 44.0752 42.6615 47.2812 29.8055C50.4872 16.9475 42.6592 3.9235 29.7992 0.719499C16.9472 -2.4885 3.92323 5.3395 0.719231 18.1995C-2.48677 31.0555 5.33923 44.0795 18.1932 47.2835L18.1912 47.2815ZM26.7552 13.2415C30.2632 13.4895 33.0552 14.5175 33.4212 17.7255C33.6932 20.0735 32.7332 21.5035 31.1752 22.3315C33.7752 22.9075 35.4252 24.4175 35.1652 27.8735C34.8432 32.1635 31.6692 33.3695 27.1132 33.7095L27.1892 38.2095L24.4772 38.2595L24.3992 33.8195C23.6972 33.8315 22.9772 33.8395 22.2312 33.8355L22.3112 38.2955L19.5992 38.3435L19.5192 33.8355L18.7532 33.8415C18.3652 33.8435 17.9732 33.8455 17.5812 33.8535L14.0492 33.9135L14.5312 30.6655C14.5312 30.6655 16.5392 30.6615 16.5032 30.6315C17.2712 30.6155 17.4652 30.0615 17.5072 29.7135L17.3852 22.5995L17.5792 22.5955H17.6712C17.5756 22.5845 17.4794 22.5799 17.3832 22.5815L17.2952 17.5015C17.1812 16.9535 16.8132 16.3215 15.7152 16.3415C15.7452 16.3015 13.7432 16.3755 13.7432 16.3755L13.6912 13.4795L17.4352 13.4155V13.4295C17.9972 13.4195 18.5752 13.3995 19.1612 13.3775L19.0852 8.9195L21.7972 8.8735L21.8732 13.2415C22.5972 13.2155 23.3252 13.1875 24.0392 13.1755L23.9632 8.8355L26.6772 8.7875L26.7552 13.2455V13.2415Z" fill="#E9983D"/>
</svg>
