<svg width="32" height="32" viewBox="0 0 32 32" fill="none" xmlns="http://www.w3.org/2000/svg">
<path d="M6.65889 17.312C6.36926 17.3117 6.08741 17.4057 5.85596 17.5799C5.62451 17.754 5.45606 17.9988 5.37607 18.2771C5.29609 18.5555 5.30892 18.8523 5.41263 19.1228C5.51634 19.3932 5.70528 19.6225 5.95089 19.776L9.53489 23.36C9.65877 23.4838 9.80582 23.582 9.96765 23.6489C10.1295 23.7159 10.3029 23.7503 10.478 23.7503C10.6532 23.7502 10.8266 23.7157 10.9883 23.6486C11.1501 23.5815 11.2971 23.4832 11.4209 23.3593C11.5447 23.2355 11.6429 23.0884 11.7098 22.9266C11.7768 22.7648 11.8112 22.5913 11.8112 22.4162C11.8111 22.2411 11.7765 22.0677 11.7095 21.9059C11.6424 21.7441 11.5441 21.5971 11.4202 21.4733L9.92556 19.98H19.9922C20.3458 19.98 20.685 19.8395 20.935 19.5895C21.1851 19.3394 21.3256 19.0003 21.3256 18.6467C21.3256 18.2931 21.1851 17.9539 20.935 17.7039C20.685 17.4538 20.3458 17.3133 19.9922 17.3133H6.65889V17.312Z" fill="white"/>
<path d="M6.65889 17.312C6.36926 17.3117 6.08741 17.4057 5.85596 17.5799C5.62451 17.754 5.45606 17.9988 5.37607 18.2771C5.29609 18.5555 5.30892 18.8523 5.41263 19.1228C5.51634 19.3932 5.70528 19.6225 5.95089 19.776L9.53489 23.36C9.65877 23.4838 9.80582 23.582 9.96765 23.6489C10.1295 23.7159 10.3029 23.7503 10.478 23.7503C10.6532 23.7502 10.8266 23.7157 10.9883 23.6486C11.1501 23.5815 11.2971 23.4832 11.4209 23.3593C11.5447 23.2355 11.6429 23.0884 11.7098 22.9266C11.7768 22.7648 11.8112 22.5913 11.8112 22.4162C11.8111 22.2411 11.7765 22.0677 11.7095 21.9059C11.6424 21.7441 11.5441 21.5971 11.4202 21.4733L9.92556 19.98H19.9922C20.3458 19.98 20.685 19.8395 20.935 19.5895C21.1851 19.3394 21.3256 19.0003 21.3256 18.6467C21.3256 18.2931 21.1851 17.9539 20.935 17.7039C20.685 17.4538 20.3458 17.3133 19.9922 17.3133H6.65889V17.312Z" fill="#C0C4D3"/>
<path d="M25.3424 14.688C25.6321 14.6883 25.9139 14.5943 26.1454 14.4202C26.3768 14.246 26.5453 14.0013 26.6253 13.7229C26.7053 13.4445 26.6924 13.1477 26.5887 12.8773C26.485 12.6068 26.2961 12.3775 26.0504 12.224L22.4664 8.64003C22.2163 8.39002 21.877 8.24963 21.5233 8.24976C21.1696 8.24988 20.8305 8.39051 20.5804 8.64069C20.3304 8.89088 20.1901 9.23014 20.1902 9.58383C20.1903 9.93752 20.3309 10.2767 20.5811 10.5267L22.0758 12.02H12.0091C11.6555 12.02 11.3164 12.1605 11.0663 12.4105C10.8163 12.6606 10.6758 12.9997 10.6758 13.3534C10.6758 13.707 10.8163 14.0461 11.0663 14.2962C11.3164 14.5462 11.6555 14.6867 12.0091 14.6867H25.3424V14.688Z" fill="white"/>
<path d="M25.3424 14.688C25.6321 14.6883 25.9139 14.5943 26.1454 14.4202C26.3768 14.246 26.5453 14.0013 26.6253 13.7229C26.7053 13.4445 26.6924 13.1477 26.5887 12.8773C26.485 12.6068 26.2961 12.3775 26.0504 12.224L22.4664 8.64003C22.2163 8.39002 21.877 8.24963 21.5233 8.24976C21.1696 8.24988 20.8305 8.39051 20.5804 8.64069C20.3304 8.89088 20.1901 9.23014 20.1902 9.58383C20.1903 9.93752 20.3309 10.2767 20.5811 10.5267L22.0758 12.02H12.0091C11.6555 12.02 11.3164 12.1605 11.0663 12.4105C10.8163 12.6606 10.6758 12.9997 10.6758 13.3534C10.6758 13.707 10.8163 14.0461 11.0663 14.2962C11.3164 14.5462 11.6555 14.6867 12.0091 14.6867H25.3424V14.688Z" fill="#C0C4D3"/>
</svg>
