<svg width="113" height="19" viewBox="0 0 113 19" fill="none" xmlns="http://www.w3.org/2000/svg">
<path d="M0.40625 18H6.86328C11.9375 18 14.9258 14.8477 14.9258 9.48047V9.45703C14.9258 4.10156 11.9258 1.08984 6.86328 1.08984H0.40625V18ZM3.94531 15.0703V4.00781H6.44141C9.54688 4.00781 11.3164 5.94141 11.3164 9.46875V9.49219C11.3164 13.1484 9.60547 15.0703 6.44141 15.0703H3.94531ZM17.6909 18H28.8941V15.082H21.23V10.8281H28.4605V8.0625H21.23V4.00781H28.8941V1.08984H17.6909V18ZM39.5459 18.293C44.2569 18.293 47.0459 15.5039 47.0459 10.8984V8.95312H39.7334V11.5898H43.6006L43.5889 11.8359C43.4952 13.9219 41.9131 15.293 39.6045 15.293C36.792 15.293 35.0108 13.125 35.0108 9.45703V9.44531C35.0108 5.85938 36.6866 3.79688 39.4756 3.79688C41.3858 3.79688 42.7334 4.74609 43.2959 6.38672L43.3428 6.50391H46.8936L46.8584 6.33984C46.2959 3.16406 43.5303 0.796875 39.4639 0.796875C34.5069 0.796875 31.4014 4.06641 31.4014 9.48047V9.49219C31.4014 15 34.4952 18.293 39.5459 18.293ZM49.8697 18H61.0728V15.082H53.4087V10.8281H60.6392V8.0625H53.4087V4.00781H61.0728V1.08984H49.8697V18ZM64.1075 18H67.2598V6.5625H67.3536L71.9239 18H74.1505L78.7091 6.5625H78.8145V18H81.9669V1.08984H77.877L73.0723 13.2422H73.002L68.1973 1.08984H64.1075V18ZM86.7477 18.1992C87.8023 18.1992 88.6461 17.3555 88.6461 16.3008C88.6461 15.2344 87.8023 14.4023 86.7477 14.4023C85.6813 14.4023 84.8492 15.2344 84.8492 16.3008C84.8492 17.3555 85.6813 18.1992 86.7477 18.1992ZM91.5284 18H95.0675V1.08984H91.5284V18ZM98.36 18H104.817C109.891 18 112.88 14.8477 112.88 9.48047V9.45703C112.88 4.10156 109.88 1.08984 104.817 1.08984H98.36V18ZM101.899 15.0703V4.00781H104.395C107.501 4.00781 109.27 5.94141 109.27 9.46875V9.49219C109.27 13.1484 107.559 15.0703 104.395 15.0703H101.899Z" fill="white"/>
<path d="M0.40625 18H6.86328C11.9375 18 14.9258 14.8477 14.9258 9.48047V9.45703C14.9258 4.10156 11.9258 1.08984 6.86328 1.08984H0.40625V18ZM3.94531 15.0703V4.00781H6.44141C9.54688 4.00781 11.3164 5.94141 11.3164 9.46875V9.49219C11.3164 13.1484 9.60547 15.0703 6.44141 15.0703H3.94531ZM17.6909 18H28.8941V15.082H21.23V10.8281H28.4605V8.0625H21.23V4.00781H28.8941V1.08984H17.6909V18ZM39.5459 18.293C44.2569 18.293 47.0459 15.5039 47.0459 10.8984V8.95312H39.7334V11.5898H43.6006L43.5889 11.8359C43.4952 13.9219 41.9131 15.293 39.6045 15.293C36.792 15.293 35.0108 13.125 35.0108 9.45703V9.44531C35.0108 5.85938 36.6866 3.79688 39.4756 3.79688C41.3858 3.79688 42.7334 4.74609 43.2959 6.38672L43.3428 6.50391H46.8936L46.8584 6.33984C46.2959 3.16406 43.5303 0.796875 39.4639 0.796875C34.5069 0.796875 31.4014 4.06641 31.4014 9.48047V9.49219C31.4014 15 34.4952 18.293 39.5459 18.293ZM49.8697 18H61.0728V15.082H53.4087V10.8281H60.6392V8.0625H53.4087V4.00781H61.0728V1.08984H49.8697V18ZM64.1075 18H67.2598V6.5625H67.3536L71.9239 18H74.1505L78.7091 6.5625H78.8145V18H81.9669V1.08984H77.877L73.0723 13.2422H73.002L68.1973 1.08984H64.1075V18ZM86.7477 18.1992C87.8023 18.1992 88.6461 17.3555 88.6461 16.3008C88.6461 15.2344 87.8023 14.4023 86.7477 14.4023C85.6813 14.4023 84.8492 15.2344 84.8492 16.3008C84.8492 17.3555 85.6813 18.1992 86.7477 18.1992ZM91.5284 18H95.0675V1.08984H91.5284V18ZM98.36 18H104.817C109.891 18 112.88 14.8477 112.88 9.48047V9.45703C112.88 4.10156 109.88 1.08984 104.817 1.08984H98.36V18ZM101.899 15.0703V4.00781H104.395C107.501 4.00781 109.27 5.94141 109.27 9.46875V9.49219C109.27 13.1484 107.559 15.0703 104.395 15.0703H101.899Z" fill="url(#paint0_radial)"/>
<defs>
<radialGradient id="paint0_radial" cx="0" cy="0" r="1" gradientUnits="userSpaceOnUse" gradientTransform="translate(51.5 24) rotate(79.7778) scale(30.9919 122.899)">
<stop stop-color="#3E8BFF"/>
<stop offset="0.583333" stop-color="#F33AE1"/>
<stop offset="1" stop-color="#FFC632"/>
</radialGradient>
</defs>
</svg>
