<svg width="203" height="39" viewBox="0 0 203 39" fill="none" xmlns="http://www.w3.org/2000/svg">
<path d="M67.0996 26.4601V7.14014H69.8196V26.4601H67.0996Z" fill="#EC0EF5"/>
<path d="M79.2799 26.8199C78.2984 26.8554 77.3232 26.6493 76.4399 26.2199C75.7346 25.8739 75.1469 25.3278 74.7499 24.6499C74.3825 24.0183 74.1893 23.3006 74.1899 22.5699C74.1605 21.7776 74.4002 20.9986 74.8699 20.3599C75.3662 19.7518 76.0305 19.3032 76.7799 19.0699C77.6784 18.7675 78.6221 18.6221 79.5699 18.6399C80.2813 18.6401 80.9911 18.707 81.6899 18.8399C82.366 18.9746 83.0338 19.1482 83.6899 19.3599V20.9899C83.0993 20.7768 82.4899 20.6194 81.8699 20.5199C81.2566 20.4043 80.6341 20.3441 80.0099 20.3399C79.2636 20.3133 78.524 20.4895 77.8699 20.8499C77.5792 21.0273 77.3438 21.2822 77.1901 21.5861C77.0364 21.8899 76.9706 22.2306 76.9999 22.5699C76.996 22.8589 77.0547 23.1453 77.1721 23.4095C77.2895 23.6736 77.4628 23.9092 77.6799 24.0999C78.2854 24.5868 79.0561 24.8198 79.8299 24.7499C80.459 24.7597 81.0801 24.6075 81.6335 24.308C82.1869 24.0086 82.654 23.5719 82.9899 23.0399C83.2817 22.6045 83.4414 22.094 83.4499 21.5699H84.0999C84.1099 22.4729 83.9115 23.3661 83.5199 24.1799C83.1514 24.9589 82.5775 25.6227 81.8599 26.0999C81.0896 26.5889 80.1921 26.8393 79.2799 26.8199V26.8199ZM83.8299 26.4599L83.4899 23.3299V17.6499C83.569 16.7839 83.3191 15.9199 82.7899 15.2299C82.5 14.9547 82.1546 14.7446 81.7769 14.6135C81.3993 14.4825 80.998 14.4335 80.5999 14.4699C80.0888 14.4599 79.5802 14.5447 79.0999 14.7199C78.7023 14.8652 78.3551 15.1221 78.0999 15.4599C77.839 15.8195 77.7053 16.2558 77.7199 16.6999H74.7199C74.6777 15.8302 74.9354 14.9723 75.4499 14.2699C75.9861 13.6218 76.7033 13.1483 77.5099 12.9099C78.5075 12.6049 79.547 12.4597 80.5899 12.4799C81.5899 12.4593 82.5835 12.6431 83.5099 13.0199C84.3433 13.3546 85.0453 13.9513 85.5099 14.7199C86.0132 15.6371 86.2553 16.6747 86.2099 17.7199V26.4399L83.8299 26.4599Z" fill="#EC0EF5"/>
<path d="M90.9296 12.8198H93.6196V21.2398C93.558 22.0874 93.8268 22.9259 94.3696 23.5798C94.6515 23.8505 94.9861 24.0603 95.3525 24.1962C95.7189 24.3321 96.1094 24.3912 96.4996 24.3698C97.2123 24.3713 97.9091 24.1587 98.4996 23.7598C99.1132 23.3219 99.5942 22.7233 99.8896 22.0298C100.24 21.1948 100.41 20.2952 100.39 19.3898H101.25C101.283 20.7519 101.062 22.1082 100.6 23.3898C100.244 24.3687 99.6116 25.2233 98.7796 25.8498C97.9794 26.4151 97.0192 26.7094 96.0396 26.6898C95.1197 26.7082 94.2074 26.5202 93.3696 26.1398C92.601 25.7761 91.9648 25.1819 91.5496 24.4398C91.073 23.514 90.8456 22.4801 90.8896 21.4398L90.9296 12.8198ZM100.43 12.8198H103.13V26.4598H100.43V12.8198Z" fill="#EC0EF5"/>
<path d="M108.64 26.4598V12.8598H110.97L111.32 15.7998V26.4598H108.64ZM118.16 26.4598V18.4598C118.229 17.4923 117.929 16.5346 117.32 15.7798C117.029 15.4736 116.676 15.2337 116.284 15.0767C115.892 14.9196 115.471 14.849 115.05 14.8698C114.334 14.8473 113.631 15.0617 113.05 15.4798C112.452 15.9424 112.001 16.5673 111.75 17.2798C111.424 18.2008 111.268 19.1732 111.29 20.1498H110.29C110.256 18.7199 110.473 17.2951 110.93 15.9398C111.28 14.9141 111.923 14.0136 112.78 13.3498C113.617 12.7492 114.629 12.4401 115.66 12.4698C116.638 12.4358 117.604 12.6896 118.44 13.1998C119.211 13.709 119.814 14.4367 120.17 15.2898C120.582 16.2947 120.783 17.3738 120.76 18.4598V26.4598H118.16Z" fill="#EC0EF5"/>
<path d="M130.88 26.8199C129.78 26.8264 128.7 26.5175 127.77 25.9299C126.788 25.3172 125.988 24.4543 125.45 23.4299C124.847 22.2629 124.548 20.963 124.58 19.6499C124.539 18.304 124.838 16.9694 125.45 15.7699C125.987 14.7633 126.789 13.923 127.77 13.3399C128.712 12.7854 129.787 12.4952 130.88 12.4999C131.628 12.4869 132.372 12.6193 133.07 12.8899C133.68 13.1129 134.24 13.4526 134.72 13.8899C135.174 14.3163 135.553 14.8168 135.84 15.3699C136.124 15.9008 136.329 16.47 136.45 17.0599L133.72 17.1999C133.557 16.5486 133.21 15.9583 132.72 15.4999C132.212 15.0648 131.559 14.8364 130.89 14.8599C130.276 14.8605 129.676 15.0375 129.16 15.3699C128.583 15.7612 128.126 16.3046 127.84 16.9399C127.194 18.6199 127.194 20.4799 127.84 22.1599C128.103 22.8109 128.543 23.3755 129.11 23.7899C129.639 24.1634 130.273 24.3594 130.92 24.3499C131.699 24.4087 132.47 24.1611 133.07 23.6599C133.317 23.4053 133.508 23.1023 133.632 22.7702C133.756 22.438 133.81 22.0838 133.79 21.7299H136.52C136.53 22.631 136.299 23.5183 135.85 24.2999C135.399 25.0728 134.736 25.7007 133.94 26.1099C132.997 26.604 131.944 26.8485 130.88 26.8199V26.8199Z" fill="#EC0EF5"/>
<path d="M140.67 26.4601V7.14014H143.35V26.4601H140.67ZM150.19 26.4601V18.4601C150.259 17.4927 149.959 16.5349 149.35 15.7802C149.061 15.4742 148.71 15.2343 148.32 15.0772C147.93 14.9201 147.51 14.8495 147.09 14.8701C146.374 14.8484 145.672 15.0627 145.09 15.4801C144.493 15.9427 144.041 16.5677 143.79 17.2802C143.464 18.2011 143.308 19.1735 143.33 20.1501H142.33C142.294 18.7193 142.514 17.2935 142.98 15.9402C143.327 14.9154 143.966 14.0149 144.82 13.3502C145.658 12.7496 146.669 12.4404 147.7 12.4702C148.678 12.4362 149.645 12.69 150.48 13.2001C151.254 13.7066 151.857 14.4351 152.21 15.2902C152.627 16.2936 152.828 17.3738 152.8 18.4601V26.4601H150.19Z" fill="#EC0EF5"/>
<path d="M157.97 33.1297V12.8597H160.18L160.65 16.1297V33.1297H157.97ZM164.41 26.8197C163.507 26.8448 162.615 26.6124 161.84 26.1497C161.087 25.6775 160.505 24.9766 160.18 24.1497C159.768 23.1171 159.57 22.0112 159.6 20.8997H160.65C160.627 21.5625 160.793 22.2181 161.13 22.7897C161.437 23.2894 161.877 23.6943 162.4 23.9597C162.916 24.2266 163.489 24.3638 164.07 24.3597C164.714 24.3565 165.344 24.1729 165.89 23.8297C166.504 23.4434 167.002 22.8973 167.33 22.2497C167.733 21.4334 167.929 20.53 167.9 19.6197C167.923 18.7401 167.752 17.8661 167.4 17.0597C167.104 16.3996 166.629 15.8351 166.03 15.4297C165.491 15.0872 164.87 14.8946 164.232 14.8718C163.594 14.8489 162.962 14.9966 162.4 15.2997C161.868 15.5935 161.428 16.0298 161.13 16.5597C160.795 17.1721 160.63 17.8623 160.65 18.5597H159.6C159.56 17.3911 159.786 16.2288 160.26 15.1597C160.622 14.3397 161.219 13.6455 161.975 13.1649C162.732 12.6842 163.614 12.4388 164.51 12.4597C165.57 12.455 166.61 12.7496 167.51 13.3097C168.472 13.9088 169.256 14.7548 169.78 15.7597C170.387 16.9502 170.686 18.2739 170.65 19.6097C170.688 20.9469 170.385 22.2719 169.77 23.4597C169.245 24.4756 168.453 25.3295 167.48 25.9297C166.559 26.5061 165.496 26.8143 164.41 26.8197V26.8197Z" fill="#EC0EF5"/>
<path d="M178.76 26.82C177.778 26.8555 176.803 26.6495 175.92 26.22C175.243 25.8808 174.675 25.3593 174.279 24.7144C173.883 24.0695 173.676 23.3267 173.68 22.57C173.65 21.7777 173.89 20.9987 174.36 20.36C174.853 19.7536 175.514 19.3051 176.26 19.07C177.162 18.7677 178.109 18.6222 179.06 18.64C179.771 18.6402 180.481 18.7072 181.18 18.84C181.856 18.9748 182.524 19.1484 183.18 19.36V20.99C182.589 20.7781 181.979 20.6208 181.36 20.52C180.746 20.4044 180.124 20.3442 179.5 20.34C178.75 20.3136 178.007 20.4898 177.35 20.85C177.062 21.0295 176.829 21.2852 176.677 21.5888C176.525 21.8923 176.46 22.2319 176.49 22.57C176.486 22.8591 176.544 23.1455 176.662 23.4096C176.779 23.6737 176.953 23.9093 177.17 24.1C177.775 24.5869 178.546 24.82 179.32 24.75C179.983 24.7639 180.637 24.5943 181.21 24.26C181.729 23.9665 182.166 23.5469 182.48 23.04C182.764 22.6016 182.92 22.0924 182.93 21.57H183.58C183.588 22.4718 183.393 23.3639 183.01 24.18C182.641 24.959 182.067 25.6228 181.35 26.1C180.576 26.5904 179.675 26.8409 178.76 26.82V26.82ZM183.31 26.46L182.97 23.33V17.65C183.046 16.7859 182.8 15.9241 182.28 15.23C181.99 14.9549 181.644 14.7447 181.267 14.6137C180.889 14.4826 180.488 14.4337 180.09 14.47C179.579 14.46 179.07 14.5448 178.59 14.72C178.192 14.8654 177.845 15.1223 177.59 15.46C177.329 15.8197 177.195 16.256 177.21 16.7H174.21C174.171 15.8292 174.432 14.9715 174.95 14.27C175.484 13.6197 176.202 13.1457 177.01 12.91C178.007 12.6042 179.047 12.459 180.09 12.48C181.086 12.4603 182.076 12.644 183 13.02C183.832 13.3566 184.533 13.9529 185 14.72C185.503 15.6372 185.745 16.6748 185.7 17.72V26.44L183.31 26.46Z" fill="#EC0EF5"/>
<path d="M195.69 26.8202C194.604 26.8308 193.54 26.5212 192.63 25.9301C191.672 25.3079 190.901 24.4368 190.4 23.4102C189.824 22.2242 189.539 20.9181 189.57 19.6002C189.536 18.2959 189.817 17.0027 190.39 15.8301C190.875 14.8337 191.617 13.9847 192.54 13.3701C193.432 12.7898 194.476 12.4871 195.54 12.5002C196.47 12.4628 197.389 12.7163 198.168 13.2253C198.948 13.7342 199.55 14.4734 199.89 15.3401C200.325 16.4088 200.533 17.5566 200.5 18.7101H199.57C199.591 17.9847 199.418 17.2667 199.07 16.6302C198.772 16.0892 198.328 15.6423 197.79 15.3401C197.27 15.0502 196.685 14.8986 196.09 14.9001C195.41 14.8938 194.744 15.0925 194.18 15.4702C193.586 15.8788 193.115 16.4426 192.82 17.1002C192.47 17.8862 192.299 18.7401 192.32 19.6002C192.3 20.4763 192.471 21.3462 192.82 22.1501C193.112 22.8207 193.582 23.3983 194.18 23.8202C194.703 24.1707 195.313 24.3677 195.942 24.3889C196.572 24.4101 197.194 24.2547 197.74 23.9402C198.284 23.6182 198.736 23.1598 199.05 22.6101C199.403 22.0039 199.583 21.3119 199.57 20.6101H200.5C200.536 21.7862 200.317 22.9563 199.86 24.0402C199.494 24.8931 198.894 25.6248 198.13 26.1501C197.402 26.6137 196.552 26.8472 195.69 26.8202V26.8202ZM200.02 26.4601L199.55 23.1902V7.14014H202.25V26.4601H200.02Z" fill="#EC0EF5"/>
<path d="M36.44 34.2998L38.78 25.5098L41.6 14.9198C42.41 11.9198 43.23 8.81979 44.04 5.75979C44.43 4.29979 44.89 2.83981 45.21 1.3698C45.2289 1.2808 45.2289 1.18882 45.21 1.09982C45.2263 0.885865 45.1581 0.674022 45.02 0.509789V0.509789L44.94 0.429803C44.8614 0.338988 44.7625 0.268087 44.6512 0.222893C44.54 0.1777 44.4196 0.159492 44.3 0.169793H44.2H44.04L39.93 0.949792L29.64 2.8998L17.17 5.2698L6.38998 7.2698L1.15997 8.2698H1.06998C0.851128 8.28882 0.646546 8.38636 0.493995 8.54443C0.341443 8.70249 0.251219 8.91043 0.239974 9.12982C0.229235 9.30661 0.269761 9.48272 0.356681 9.63705C0.443601 9.79137 0.573224 9.91735 0.72998 9.99981V9.99981L3.15997 11.3298L8.97998 14.5098L15.98 18.3598C18.02 19.4731 20.0566 20.5865 22.09 21.6998C23.01 22.1998 23.91 22.7498 24.85 23.2098L27.77 28.2098C29.39 30.9431 31.0033 33.6731 32.61 36.3998L33.72 38.2698C33.8318 38.4027 33.9786 38.5016 34.1438 38.5553C34.3089 38.609 34.4858 38.6154 34.6544 38.5738C34.823 38.5322 34.9766 38.4442 35.0978 38.3198C35.2189 38.1953 35.3028 38.0395 35.34 37.8698C35.82 36.7398 36.11 35.5198 36.44 34.2998ZM15.82 7.38979L28.29 5.0198L39.08 3.0198L41.88 2.4898L38.58 6.2398L37.58 7.3698L33.11 12.4498L32.06 13.6498L32 13.7098L29.42 13.2498L21.96 11.9398L12.96 10.3698L6.22998 9.18981L15.82 7.38979ZM27.42 23.9498L26.67 22.6798C28.3233 20.7731 29.97 18.8598 31.61 16.9398C31.67 17.4898 31.72 18.0398 31.77 18.5898C31.92 20.1898 32.08 21.7898 32.23 23.3898L32.86 29.9898C32.98 31.2498 33.09 32.4998 33.21 33.7598L32.21 32.1398L27.42 23.9498Z" fill="#EC0EF5"/>
</svg>
