<svg width="175" height="48" viewBox="0 0 175 48" fill="none" xmlns="http://www.w3.org/2000/svg">
<path d="M67.0996 27.6498V25.8298H75.8696V27.6498H67.0996ZM73.2896 39.7899C72.5658 39.7991 71.8488 39.6489 71.1896 39.3499C70.5781 39.0676 70.0658 38.6076 69.7196 38.0298C69.3299 37.3568 69.1392 36.5869 69.1696 35.8098V22.0898H71.8196V35.6498C71.8196 36.9298 72.4196 37.5698 73.6196 37.5698C73.9797 37.5706 74.3387 37.5303 74.6896 37.4498C75.0932 37.3542 75.4907 37.234 75.8796 37.0898L76.2596 38.9998C75.7771 39.2026 75.2829 39.3762 74.7796 39.5198C74.2951 39.6611 73.7942 39.7384 73.2896 39.7498V39.7899Z" fill="#E5C10E"/>
<path d="M79.8198 39.3797V25.7497H82.5098V39.3797H79.8198ZM81.8198 33.3097C81.7837 31.8409 81.9656 30.375 82.3598 28.9597C82.628 27.9776 83.1567 27.0861 83.8898 26.3797C84.5311 25.8264 85.353 25.5276 86.1998 25.5397C86.4475 25.5354 86.695 25.5521 86.9398 25.5897C87.1729 25.6288 87.4033 25.6822 87.6298 25.7497L87.5298 28.4197C87.2698 28.3497 86.9998 28.2897 86.6998 28.2397C86.4325 28.1907 86.1616 28.164 85.8898 28.1597C85.2058 28.1327 84.5349 28.3528 83.9998 28.7797C83.4715 29.2466 83.0924 29.8587 82.9098 30.5397C82.6556 31.4404 82.5377 32.3741 82.5598 33.3097H81.8198Z" fill="#E5C10E"/>
<path d="M95.2296 39.7498C94.1081 39.7626 93.007 39.45 92.0596 38.8499C91.1052 38.2204 90.3328 37.3514 89.8196 36.3298C89.2518 35.17 88.9705 33.8909 88.9996 32.5999C88.961 31.2694 89.2422 29.9491 89.8196 28.7498C90.3068 27.7342 91.0759 26.8802 92.0352 26.2897C92.9945 25.6993 94.1034 25.3973 95.2296 25.4199C96.1743 25.3947 97.109 25.6189 97.9396 26.0698C98.6823 26.4795 99.3086 27.0714 99.7596 27.7899C100.249 28.5339 100.588 29.3661 100.76 30.2399C100.93 31.1735 100.961 32.1273 100.85 33.0698H91.1896V31.5098H99.0096L98.3596 31.9398C98.3912 31.4288 98.3677 30.9159 98.2896 30.4099C98.2124 29.9184 98.0571 29.4423 97.8296 28.9998C97.5877 28.5861 97.2433 28.2417 96.8296 27.9998C96.3576 27.7233 95.8162 27.588 95.2696 27.6099C94.5545 27.5798 93.8501 27.7911 93.2696 28.2098C92.7215 28.6123 92.3014 29.1644 92.0596 29.7999C91.7771 30.4914 91.6376 31.233 91.6496 31.9799V33.0698C91.6362 33.8638 91.7684 34.6535 92.0396 35.3999C92.2749 36.0334 92.6839 36.5878 93.2196 36.9998C93.8037 37.4102 94.5063 37.6175 95.2196 37.5899C95.9085 37.619 96.5885 37.4262 97.1596 37.0399C97.4297 36.8473 97.6577 36.6016 97.8296 36.3179C98.0015 36.0342 98.1138 35.7184 98.1596 35.3898H100.9C100.769 36.2325 100.424 37.0277 99.8996 37.6998C99.3707 38.3708 98.6835 38.9 97.8996 39.2399C97.056 39.5979 96.1457 39.7717 95.2296 39.7498V39.7498Z" fill="#E5C10E"/>
<path d="M109.03 39.7501C108.048 39.7855 107.073 39.5795 106.19 39.1501C105.489 38.7929 104.903 38.2453 104.5 37.5701C104.137 36.9408 103.947 36.2266 103.95 35.5001C103.919 34.7075 104.159 33.9281 104.63 33.2901C105.127 32.685 105.786 32.2341 106.53 31.9901C107.434 31.6962 108.38 31.5542 109.33 31.5701C110.041 31.5703 110.751 31.6373 111.45 31.7701C112.127 31.8987 112.796 32.0725 113.45 32.2901V33.9101C112.86 33.7062 112.255 33.549 111.64 33.4401C111.027 33.325 110.404 33.2647 109.78 33.2601C109.03 33.2337 108.288 33.4098 107.63 33.7701C107.342 33.952 107.109 34.2096 106.958 34.5147C106.806 34.8197 106.741 35.1606 106.77 35.5001C106.769 35.7886 106.829 36.074 106.947 36.3377C107.064 36.6013 107.235 36.8373 107.45 37.0301C108.057 37.5134 108.827 37.7428 109.6 37.6701C110.23 37.6858 110.853 37.5362 111.408 37.2362C111.962 36.9361 112.428 36.4962 112.76 35.9601C113.044 35.5217 113.2 35.0125 113.21 34.4901H113.86C113.871 35.3921 113.676 36.2847 113.29 37.1001C112.927 37.8825 112.352 38.5476 111.63 39.0201C110.857 39.5198 109.95 39.7742 109.03 39.7501ZM113.58 39.3801L113.24 36.2601V30.5901C113.316 29.726 113.07 28.8642 112.55 28.1701C112.259 27.8971 111.913 27.6883 111.536 27.5574C111.158 27.4265 110.758 27.3763 110.36 27.4101C109.849 27.4051 109.341 27.4897 108.86 27.6601C108.463 27.8064 108.116 28.0632 107.86 28.4001C107.597 28.7625 107.463 29.2026 107.48 29.6501H104.48C104.441 28.7793 104.703 27.9216 105.22 27.2201C105.738 26.5772 106.433 26.1008 107.22 25.8501C108.222 25.5499 109.264 25.4049 110.31 25.4201C111.308 25.3986 112.299 25.586 113.22 25.9701C114.052 26.3067 114.754 26.9029 115.22 27.6701C115.725 28.5865 115.967 29.6247 115.92 30.6701V39.3901L113.58 39.3801Z" fill="#E5C10E"/>
<path d="M126 39.7501C124.864 39.7806 123.733 39.5905 122.67 39.1901C121.845 38.883 121.127 38.3449 120.6 37.6401C120.118 36.9548 119.86 36.1377 119.86 35.3001H122.39C122.382 35.6468 122.465 35.9894 122.63 36.2944C122.795 36.5994 123.036 36.8564 123.33 37.0401C124.058 37.4487 124.886 37.6429 125.72 37.6001C126.218 37.6084 126.713 37.5236 127.18 37.3501C127.562 37.2 127.904 36.9639 128.18 36.6601C128.43 36.3873 128.57 36.0305 128.57 35.6601C128.578 35.4495 128.536 35.2399 128.448 35.0486C128.359 34.8574 128.226 34.6899 128.06 34.5601C127.562 34.2233 127.006 33.9825 126.42 33.8501L123.64 32.8501C122.678 32.564 121.8 32.0493 121.08 31.3501C120.744 31.0032 120.49 30.5856 120.337 30.1278C120.183 29.6701 120.134 29.1838 120.192 28.7046C120.25 28.2253 120.415 27.7652 120.674 27.3578C120.934 26.9504 121.281 26.6062 121.69 26.3501C122.889 25.6133 124.285 25.2641 125.69 25.3501C127.107 25.252 128.515 25.6323 129.69 26.4301C130.122 26.7407 130.477 27.1467 130.727 27.6167C130.977 28.0867 131.114 28.6081 131.13 29.1401H128.52C128.493 28.8851 128.407 28.6399 128.268 28.4244C128.129 28.2089 127.941 28.0293 127.72 27.9001C127.102 27.5858 126.413 27.4377 125.72 27.4701C125.034 27.4299 124.355 27.62 123.79 28.0101C123.585 28.1411 123.414 28.3193 123.293 28.5299C123.171 28.7404 123.101 28.9771 123.09 29.2201C123.09 30.0301 123.79 30.6401 125.18 31.0301L128.1 32.0301C129.051 32.2986 129.932 32.7732 130.68 33.4201C130.974 33.6936 131.207 34.027 131.362 34.3978C131.518 34.7686 131.592 35.1683 131.58 35.5701C131.575 36.2943 131.332 36.9969 130.89 37.5701C130.379 38.227 129.712 38.7461 128.95 39.0801C128.028 39.5183 127.021 39.747 126 39.7501V39.7501Z" fill="#E5C10E"/>
<path d="M135.57 25.75H138.25V34.17C138.191 35.0159 138.464 35.8512 139.01 36.5C139.289 36.7742 139.623 36.9864 139.99 37.1226C140.357 37.2587 140.749 37.3158 141.14 37.29C141.853 37.2965 142.551 37.0836 143.14 36.6801C143.752 36.2473 144.23 35.6513 144.52 34.96C144.875 34.1264 145.046 33.2258 145.02 32.32H145.89C145.925 33.6822 145.705 35.039 145.24 36.32C144.88 37.3024 144.245 38.1602 143.41 38.79C142.61 39.3566 141.65 39.651 140.67 39.63C139.754 39.6436 138.846 39.4558 138.01 39.08C137.236 38.7189 136.598 38.1196 136.19 37.37C135.709 36.4456 135.482 35.4107 135.53 34.37L135.57 25.75ZM145.06 25.75H147.76V39.38H145.06V25.75Z" fill="#E5C10E"/>
<path d="M153.27 39.3797V25.7497H155.96V39.3797H153.27ZM155.27 33.3097C155.232 31.8402 155.417 30.3734 155.82 28.9597C156.081 27.9767 156.607 27.0842 157.34 26.3797C157.981 25.8264 158.803 25.5276 159.65 25.5397C159.901 25.5354 160.152 25.5522 160.4 25.5897C160.63 25.6288 160.857 25.6822 161.08 25.7497L160.98 28.4197C160.71 28.346 160.436 28.2859 160.16 28.2397C159.889 28.1905 159.615 28.1638 159.34 28.1597C158.656 28.1327 157.985 28.3528 157.45 28.7797C156.925 29.2493 156.546 29.8604 156.36 30.5397C156.111 31.4414 155.993 32.3743 156.01 33.3097H155.27Z" fill="#E5C10E"/>
<path d="M161.7 25.79H164.7L168.8 37.04H168.25L171.54 25.79H174.28L169.13 42C168.795 43.2292 168.171 44.3607 167.31 45.3C166.946 45.6598 166.513 45.9418 166.037 46.1292C165.561 46.3165 165.051 46.4053 164.54 46.39C163.935 46.3929 163.333 46.3122 162.75 46.15C162.143 45.9776 161.556 45.7395 161 45.44V43.03C161.45 43.3586 161.945 43.6213 162.47 43.81C162.943 43.9706 163.44 44.0517 163.94 44.05C164.418 44.0581 164.882 43.8949 165.25 43.59C165.637 43.2504 165.95 42.8352 166.17 42.37C166.429 41.8421 166.643 41.2936 166.81 40.73L167.22 39.38L161.7 25.79Z" fill="#E5C10E"/>
<path d="M0.660058 36.0397C0.688622 36.0667 0.722758 36.0872 0.760064 36.0997V36.0997H0.910058H0.980065C2.48007 36.5797 3.98006 36.9897 5.51006 37.4297L14.8801 40.1996L25.6801 43.3796L34.6101 46.0096L38.3501 47.1196C38.5077 47.1658 38.6754 47.166 38.8331 47.1199C38.9908 47.0738 39.1321 46.9835 39.2401 46.8597L39.2901 46.7997C39.3644 46.6961 39.4218 46.5813 39.4601 46.4597C39.7001 45.6697 39.9301 44.8797 40.1701 44.0897C41.1834 40.6697 42.1834 37.2497 43.1701 33.8297C43.7967 31.6897 44.4334 29.5463 45.0801 27.3997C45.1 27.2973 45.1 27.192 45.0801 27.0897C45.0749 26.9391 45.0263 26.7932 44.9401 26.6697V26.6697V26.5897C44.2701 25.5897 43.4901 24.5897 42.7801 23.5897C41.2734 21.4897 39.7701 19.3863 38.2701 17.2797L33.0301 9.95966L28.7201 3.95966L26.9201 1.42969C26.8216 1.29729 26.6953 1.18805 26.5501 1.10968C26.3734 0.984269 26.1552 0.931946 25.9409 0.963624C25.7266 0.995302 25.5328 1.10851 25.4001 1.27966V1.33966C25.0501 1.74966 24.7401 2.20965 24.4001 2.63965L22.4001 5.37964L16.2001 13.6497L9.00006 23.2697L3.00006 31.2697L0.520058 34.6497C0.379012 34.807 0.291426 35.005 0.269868 35.2151C0.248309 35.4253 0.29389 35.637 0.400063 35.8196C0.444543 35.884 0.494749 35.9443 0.550065 35.9996L0.660058 36.0397ZM23.8201 6.73969C23.3534 8.37302 22.8767 10.003 22.3901 11.6296L20.1601 19.2897C19.5401 21.3997 18.9301 23.5096 18.3101 25.6196C18.1001 26.3396 17.8901 27.0597 17.6901 27.7697L16.0901 28.3997L6.82006 32.0596L4.04006 33.1497L5.04006 31.8297L11.2701 23.5197L18.4801 13.8997L23.8201 6.73969ZM38.1701 44.5897L36.8201 43.3997L25.9901 33.8297L20.9001 29.3397H21.6801L35.6001 28.6697L43.0201 28.3196L42.6901 29.4297C41.6701 32.8497 40.6701 36.2696 39.6901 39.6896C39.1567 41.3096 38.6467 42.943 38.1601 44.5897H38.1701Z" fill="#E5C10E"/>
</svg>
