<svg width="45" height="36" viewBox="0 0 45 36" fill="none" xmlns="http://www.w3.org/2000/svg">
<path d="M44.0989 28.926H44.1589C44.3087 28.8593 44.4419 28.7603 44.5489 28.636C44.6278 28.5484 44.695 28.4509 44.7489 28.346C44.7543 28.3196 44.7543 28.2924 44.7489 28.266C44.7489 28.266 44.7489 28.216 44.7489 28.196V28.106C44.7489 28.106 44.7489 28.106 44.7489 28.036V27.956C44.7713 27.77 44.7365 27.5817 44.6489 27.416L39.8589 18.416L32.2289 4.01601L30.4689 0.696007C30.467 0.672713 30.467 0.649295 30.4689 0.626C30.3836 0.459665 30.2603 0.315795 30.1089 0.206017C29.9967 0.136664 29.8756 0.0828376 29.7489 0.0460135H29.6689C29.4961 -0.00829593 29.3118 -0.0146586 29.1357 0.0276114C28.9596 0.0698813 28.7982 0.159187 28.6689 0.286004V0.286004C28.5733 0.359914 28.489 0.447533 28.4189 0.546013C27.0856 1.97268 25.7523 3.39935 24.4189 4.82601L17.6089 12.116L16.5489 13.256L8.41892 9.05602L7.14893 8.42602C6.98739 8.35436 6.80974 8.32677 6.63408 8.34609C6.45842 8.36542 6.29102 8.43094 6.14893 8.536C5.91013 8.66072 5.72777 8.87167 5.63892 9.126C5.58079 9.24481 5.5468 9.37397 5.53893 9.50601L3.71893 16.576C2.70559 20.5093 1.70559 24.4393 0.718926 28.366C0.488926 29.276 0.248921 30.176 0.018921 31.086C0.018921 31.086 0.018921 31.146 0.018921 31.176C-0.00630699 31.3115 -0.00630699 31.4505 0.018921 31.586V31.676C0.046491 31.8889 0.133091 32.0898 0.268921 32.256L0.328926 32.316L0.428925 32.406C0.53115 32.49 0.645863 32.5575 0.768921 32.606H0.858925H0.948921H1.06892L8.06892 33.466L19.1989 34.816L21.5889 35.106C21.7177 35.1316 21.8502 35.1316 21.9789 35.106C22.1397 35.1036 22.2975 35.0624 22.4389 34.986L29.5089 32.986L41.2589 29.666L43.9289 28.916C43.9854 28.9225 44.0421 28.9258 44.0989 28.926V28.926ZM4.09892 24.466C5.11226 20.5327 6.11226 16.6027 7.09892 12.676V12.536L10.7089 18.416L11.0689 18.986C8.46892 21.7527 5.87559 24.526 3.28893 27.306C3.59893 26.356 3.83893 25.416 4.07893 24.516L4.09892 24.466ZM19.7689 28.466L14.8489 20.466L14.0989 19.256C15.0989 18.166 16.0989 17.076 17.0989 15.996L23.8489 19.326L23.9489 19.376C23.0423 23.2227 22.1356 27.0727 21.2289 30.926C20.7589 30.126 20.2489 29.306 19.7489 28.516L19.7689 28.466ZM37.8989 23.616L28.0289 18.736L26.7289 18.096C27.1089 16.466 27.4889 14.826 27.8789 13.196C28.5689 10.266 29.2589 7.32602 29.9389 4.39602C31.0389 6.45602 32.1323 8.51601 33.2189 10.576L40.8489 24.976L40.9289 25.116L37.8989 23.616Z" fill="#12CC3E"/>
</svg>
