<svg width="206" height="49" viewBox="0 0 206 49" fill="none" xmlns="http://www.w3.org/2000/svg">
<path d="M0.609863 30.2597L4.67986 36.0598L11.5099 45.7798L13.0799 48.0197C13.1915 48.2045 13.36 48.3482 13.56 48.4293C13.7601 48.5104 13.9811 48.5246 14.1899 48.4698L14.3599 48.3997L17.2199 47.2597L24.4399 44.3897L33.2099 40.8997L40.7999 37.8997L44.4499 36.4497C44.5919 36.4186 44.7254 36.3568 44.8412 36.2687C44.9569 36.1806 45.052 36.0684 45.1199 35.9398V35.9398C45.1476 35.9041 45.168 35.8634 45.1799 35.8198C45.1842 35.7765 45.1842 35.733 45.1799 35.6898C45.1799 35.6898 45.1799 35.6898 45.1799 35.6898C45.1848 35.6499 45.1848 35.6096 45.1799 35.5698C45.1789 35.5531 45.1789 35.5364 45.1799 35.5197C45.1848 35.4866 45.1848 35.4529 45.1799 35.4197C45.1847 35.3799 45.1847 35.3396 45.1799 35.2997V35.2097C45.1838 35.1765 45.1838 35.143 45.1799 35.1097V35.1097V35.0598C45.1841 35.0434 45.1841 35.0261 45.1799 35.0097V35.0097L45.1099 34.9098L39.8099 29.3498L31.3799 20.4998L29.6699 18.6997C29.5499 18.1297 29.4199 17.5497 29.2899 16.9797C28.6299 13.9797 27.9699 10.9797 27.2899 7.97974C26.8099 5.79974 26.3899 3.58974 25.8499 1.41974C25.8386 1.31187 25.8081 1.20688 25.7599 1.10974C25.7186 0.992071 25.6501 0.885844 25.5599 0.799743V0.799743L25.4699 0.729735L25.3899 0.679748C25.3272 0.641525 25.26 0.611294 25.1899 0.589751C25.0774 0.570343 24.9624 0.570343 24.8499 0.589751H24.7599C24.5518 0.6068 24.3583 0.703515 24.2199 0.85974V0.919738C23.4499 1.82974 22.6899 2.73976 21.9299 3.65976L16.3199 10.3798L9.56986 18.4797C7.60986 20.8264 5.65319 23.1597 3.69986 25.4797C2.74986 26.6197 1.78986 27.7497 0.849861 28.8997V28.9497V29.0197C0.741542 29.16 0.672424 29.3265 0.649582 29.5022C0.62674 29.6779 0.650997 29.8565 0.719864 30.0197C0.669995 30.093 0.632808 30.1741 0.609863 30.2597V30.2597ZM10.5199 40.9197L3.68987 31.1997L3.38986 30.7697L10.7499 31.8297L11.4799 31.9398C11.6299 33.4998 11.7799 35.0598 11.9199 36.6198C12.1499 39.0398 12.3799 41.4697 12.5999 43.8897L10.5199 40.9197ZM24.9899 42.0598L17.4099 45.0598L15.6999 45.7397L16.8199 42.8297L19.9399 34.9297C20.0799 34.5897 20.2099 34.2397 20.3499 33.9297L28.0399 34.7498L40.1599 36.0398L33.7299 38.5898L24.9899 42.0598ZM27.1899 17.0598C27.3099 17.6298 27.4399 18.2098 27.5699 18.7798C26.6365 20.2331 25.7032 21.6831 24.7699 23.1298L19.9699 30.5898L19.2799 31.6697L13.7499 30.3398L14.5899 28.3398C15.5565 25.9798 16.5332 23.6164 17.5199 21.2498L21.0899 12.6497C22.0899 10.1697 23.0899 7.69974 24.1599 5.22974L24.4299 4.57974C24.6499 5.57974 24.8699 6.57974 25.0799 7.57974C25.8199 10.7497 26.4899 13.9198 27.1899 17.0998V17.0598Z" fill="#0E93F5"/>
<path d="M73.2899 36.5499C72.1894 36.5595 71.1107 36.2428 70.1899 35.6399C69.2201 35.014 68.4388 34.136 67.9299 33.0999C67.3534 31.8965 67.0691 30.5739 67.0999 29.2399C67.0658 27.9195 67.3469 26.61 67.92 25.4199C68.4101 24.4094 69.1631 23.5493 70.0999 22.9299C70.9918 22.3483 72.0352 22.0422 73.0999 22.0499C74.0328 22.0263 74.9517 22.2804 75.7399 22.7799C76.5214 23.3078 77.1329 24.0512 77.4999 24.9199C77.9391 26.0053 78.1502 27.1694 78.1199 28.3399H77.17C77.1962 27.6044 77.0234 26.8754 76.67 26.2299C76.3683 25.6798 75.9177 25.2258 75.3699 24.9199C74.8468 24.6299 74.2581 24.4784 73.6599 24.4799C72.969 24.4691 72.2916 24.6717 71.7199 25.0599C71.1172 25.4685 70.6396 26.0362 70.3399 26.6999C69.9904 27.5001 69.8198 28.3669 69.8399 29.2399C69.821 30.1257 69.9914 31.0053 70.3399 31.8199C70.636 32.4966 71.1137 33.0781 71.7199 33.4999C72.2825 33.8925 72.954 34.0989 73.64 34.0899C74.2309 34.0888 74.8109 33.93 75.3199 33.6299C75.8714 33.3054 76.3296 32.8438 76.6499 32.2899C77.0122 31.658 77.1922 30.938 77.17 30.2099H78.1199C78.1545 31.403 77.9328 32.5897 77.4699 33.6899C77.0993 34.5535 76.4928 35.2952 75.7199 35.8299C74.9983 36.3036 74.1531 36.554 73.2899 36.5499V36.5499ZM77.67 36.1799L77.1899 32.8799V16.6499H79.9299V36.1999L77.67 36.1799Z" fill="#0E93F5"/>
<path d="M89.5197 36.5498C88.5273 36.5871 87.5412 36.3775 86.6497 35.9398C85.9627 35.5995 85.3848 35.0733 84.9818 34.421C84.5788 33.7688 84.3667 33.0165 84.3697 32.2498C84.3391 31.4449 84.5863 30.654 85.0697 30.0098C85.5659 29.3927 86.2342 28.9368 86.9897 28.6998C87.902 28.3975 88.8589 28.2521 89.8197 28.2698C90.541 28.2701 91.2607 28.337 91.9697 28.4698C92.6669 28.6029 93.3549 28.7799 94.0297 28.9998V30.6498C93.4311 30.4379 92.8155 30.2773 92.1897 30.1698C91.5686 30.0626 90.9399 30.0058 90.3097 29.9998C89.5538 29.9722 88.8043 30.1484 88.1397 30.5098C87.8448 30.6908 87.6061 30.9504 87.4507 31.2596C87.2952 31.5687 87.2291 31.9151 87.2597 32.2598C87.2587 32.5522 87.3197 32.8416 87.4386 33.1088C87.5575 33.3759 87.7317 33.6149 87.9497 33.8098C88.5647 34.2934 89.3402 34.5256 90.1197 34.4598C90.7921 34.4716 91.4552 34.3023 92.0397 33.9698C92.5614 33.6638 93.0034 33.2389 93.3297 32.7298C93.6171 32.2849 93.7763 31.7693 93.7897 31.2398H94.4397C94.4497 32.1525 94.2513 33.0554 93.8597 33.8798C93.4928 34.6713 92.9106 35.3435 92.1797 35.8198C91.3886 36.3295 90.4602 36.5843 89.5197 36.5498ZM94.1297 36.1798L93.7897 33.0198V27.2798C93.8648 26.4034 93.6117 25.5303 93.0797 24.8298C92.7868 24.5523 92.4384 24.3402 92.0574 24.2075C91.6764 24.0747 91.2716 24.0244 90.8697 24.0598C90.3492 24.0548 89.8316 24.1394 89.3397 24.3098C88.9413 24.4636 88.5945 24.7271 88.3397 25.0698C88.0767 25.4322 87.9429 25.8724 87.9597 26.3198H84.9597C84.9207 25.4397 85.1816 24.5723 85.6997 23.8598C86.2422 23.2051 86.9657 22.7251 87.7797 22.4798C88.7943 22.1741 89.8503 22.029 90.9097 22.0498C91.9107 22.0473 92.9014 22.2516 93.8197 22.6498C94.6508 22.9983 95.3508 23.6002 95.8197 24.3698C96.3178 25.289 96.5596 26.3251 96.5197 27.3698V36.1998L94.1297 36.1798Z" fill="#0E93F5"/>
<path d="M106.7 36.5501C105.551 36.5803 104.407 36.3902 103.33 35.9901C102.495 35.6728 101.766 35.1249 101.23 34.4101C100.744 33.7189 100.482 32.895 100.48 32.0501H103.04C103.032 32.3993 103.115 32.7447 103.282 33.0517C103.448 33.3587 103.693 33.6167 103.99 33.8001C104.727 34.2247 105.571 34.4262 106.42 34.3801C106.925 34.3844 107.427 34.2963 107.9 34.1201C108.283 33.9664 108.625 33.7269 108.9 33.4201C109.157 33.1504 109.3 32.7924 109.3 32.4201C109.31 32.2068 109.267 31.9944 109.177 31.801C109.086 31.6077 108.95 31.4392 108.78 31.3101C108.278 30.9661 107.714 30.7217 107.12 30.5901L104.31 29.5901C103.336 29.3011 102.447 28.7794 101.72 28.0701C101.13 27.4554 100.806 26.6322 100.82 25.7801C100.815 25.2321 100.952 24.6921 101.216 24.2122C101.48 23.7323 101.864 23.3286 102.33 23.0401C103.533 22.3127 104.926 21.9643 106.33 22.0401C107.747 21.9488 109.155 22.3323 110.33 23.1301C110.769 23.4421 111.13 23.8521 111.384 24.3277C111.637 24.8033 111.776 25.3313 111.79 25.8701H109.18C109.152 25.613 109.064 25.3661 108.923 25.1491C108.782 24.9321 108.593 24.7509 108.37 24.6201C107.754 24.2983 107.064 24.1464 106.37 24.1801C105.66 24.1266 104.953 24.321 104.37 24.7301C104.162 24.8637 103.989 25.045 103.866 25.259C103.742 25.4729 103.672 25.7133 103.66 25.9601C103.66 26.7801 104.37 27.3901 105.78 27.7901L108.78 28.7901C109.738 29.0619 110.626 29.5397 111.38 30.1901C111.679 30.4676 111.916 30.8054 112.074 31.1812C112.233 31.557 112.31 31.9623 112.3 32.3701C112.288 33.0948 112.043 33.7964 111.6 34.3701C111.071 35.0411 110.384 35.5702 109.6 35.9101C108.69 36.3284 107.701 36.5466 106.7 36.5501V36.5501Z" fill="#0E93F5"/>
<path d="M116.73 36.1799V16.6499H119.44V36.1999L116.73 36.1799ZM126.37 36.1799V28.1099C126.436 27.132 126.133 26.1648 125.52 25.3999C125.224 25.0916 124.866 24.8501 124.469 24.6914C124.073 24.5328 123.647 24.4606 123.22 24.4799C122.504 24.4632 121.801 24.681 121.22 25.0999C120.615 25.5679 120.157 26.1995 119.9 26.9199C119.564 27.8524 119.405 28.8392 119.43 29.8299H118.43C118.393 28.3826 118.613 26.9403 119.08 25.5699C119.434 24.5301 120.084 23.6161 120.95 22.9399C121.801 22.3347 122.826 22.0224 123.87 22.0499C124.858 22.0212 125.834 22.2781 126.68 22.7899C127.461 23.3028 128.07 24.0377 128.43 24.8999C128.851 25.9167 129.055 27.0099 129.03 28.1099V36.1799H126.37Z" fill="#0E93F5"/>
<path d="M134.23 36.1799V16.6499H136.95V32.8999L136.08 36.1999L134.23 36.1799ZM140.86 36.5499C139.993 36.559 139.143 36.3082 138.42 35.8299C137.647 35.2952 137.041 34.5535 136.67 33.6899C136.207 32.5897 135.985 31.403 136.02 30.2099H136.95C136.931 30.9376 137.111 31.6568 137.47 32.2899C137.794 32.8528 138.26 33.3215 138.82 33.6499C139.336 33.9512 139.923 34.11 140.52 34.1099C141.203 34.1222 141.873 33.9155 142.43 33.5199C143.029 33.0953 143.499 32.5141 143.79 31.8399C144.147 31.0276 144.321 30.1469 144.3 29.2599C144.32 28.3869 144.149 27.5201 143.8 26.7199C143.503 26.0603 143.033 25.4936 142.44 25.0799C141.851 24.6803 141.151 24.4773 140.44 24.4999C139.839 24.4998 139.247 24.6512 138.72 24.9399C138.171 25.2482 137.718 25.7013 137.41 26.2499C137.061 26.8974 136.889 27.6249 136.91 28.3599H135.98C135.948 27.1883 136.163 26.0231 136.61 24.9399C136.977 24.074 137.584 23.3313 138.36 22.7999C139.148 22.3004 140.067 22.0463 141 22.0699C142.065 22.0616 143.108 22.3677 144 22.9499C144.94 23.5687 145.696 24.4287 146.19 25.4399C146.737 26.6462 147.02 27.9554 147.02 29.2799C147.02 30.6044 146.737 31.9136 146.19 33.1199C145.682 34.1533 144.905 35.0307 143.94 35.6599C143.011 36.258 141.925 36.5676 140.82 36.5499H140.86Z" fill="#0E93F5"/>
<path d="M156.62 36.55C155.449 36.5694 154.293 36.2907 153.26 35.74C152.26 35.1732 151.45 34.3245 150.93 33.3C150.364 32.0422 150.072 30.6789 150.072 29.3C150.072 27.9211 150.364 26.5578 150.93 25.3C151.45 24.2782 152.261 23.4328 153.26 22.87C154.293 22.3194 155.449 22.0406 156.62 22.06C157.777 22.043 158.92 22.3218 159.94 22.87C160.936 23.4334 161.743 24.2789 162.26 25.3C162.819 26.5595 163.107 27.9221 163.107 29.3C163.107 30.6779 162.819 32.0406 162.26 33.3C161.743 34.3238 160.936 35.1726 159.94 35.74C158.92 36.2882 157.777 36.567 156.62 36.55V36.55ZM156.53 34.18C157.239 34.191 157.936 33.989 158.53 33.6C159.131 33.1916 159.597 32.6138 159.87 31.94C160.192 31.1016 160.349 30.2083 160.33 29.31C160.406 28.0299 160.073 26.7588 159.38 25.68C159.064 25.2561 158.649 24.9166 158.171 24.6916C157.693 24.4666 157.167 24.363 156.64 24.39C155.907 24.3742 155.187 24.5761 154.57 24.97C153.973 25.3892 153.511 25.9729 153.24 26.65C152.91 27.4969 152.753 28.4015 152.78 29.31C152.716 30.5834 153.067 31.8431 153.78 32.9C154.098 33.3229 154.515 33.6609 154.994 33.8841C155.474 34.1074 156.001 34.209 156.53 34.18V34.18Z" fill="#0E93F5"/>
<path d="M171.34 36.5501C170.344 36.5891 169.354 36.3795 168.46 35.9402C167.772 35.6012 167.195 35.0751 166.793 34.4223C166.391 33.7695 166.182 33.0166 166.19 32.2502C166.155 31.4464 166.399 30.6553 166.88 30.0101C167.376 29.3931 168.044 28.9371 168.8 28.7001C169.715 28.3971 170.676 28.2517 171.64 28.2701C172.358 28.2704 173.074 28.3374 173.78 28.4702C174.477 28.602 175.165 28.779 175.84 29.0002V30.6502C175.241 30.4371 174.626 30.2764 174 30.1701C173.379 30.063 172.75 30.0061 172.12 30.0002C171.364 29.9726 170.614 30.1487 169.95 30.5101C169.657 30.6932 169.421 30.9536 169.268 31.2625C169.114 31.5713 169.049 31.9166 169.08 32.2601C169.077 32.5519 169.136 32.841 169.253 33.1082C169.37 33.3754 169.543 33.6147 169.76 33.8102C170.378 34.2953 171.157 34.5276 171.94 34.4602C172.577 34.4718 173.206 34.3187 173.767 34.0156C174.328 33.7125 174.8 33.2697 175.14 32.7301C175.432 32.2873 175.591 31.7704 175.6 31.2402H176.26C176.265 32.1523 176.067 33.0542 175.68 33.8802C175.307 34.6676 174.726 35.3383 174 35.8202C173.208 36.3275 172.28 36.5821 171.34 36.5501V36.5501ZM175.94 36.1802L175.6 33.0201V27.2802C175.673 26.4055 175.424 25.5342 174.9 24.8301C174.604 24.5535 174.254 24.342 173.871 24.2094C173.489 24.0767 173.083 24.0259 172.68 24.0602C172.162 24.0543 171.648 24.1389 171.16 24.3102C170.744 24.4571 170.379 24.721 170.11 25.0702C169.847 25.4325 169.713 25.8727 169.73 26.3202H166.73C166.691 25.44 166.952 24.5727 167.47 23.8601C168.012 23.2055 168.736 22.7254 169.55 22.4801C170.564 22.1753 171.62 22.0302 172.68 22.0501C173.69 22.0278 174.695 22.2151 175.63 22.6002C176.462 22.9475 177.162 23.5497 177.63 24.3202C178.131 25.2383 178.377 26.2746 178.34 27.3202V36.1502L175.94 36.1802Z" fill="#0E93F5"/>
<path d="M183.48 36.1801V22.3801H186.2V36.1801H183.48ZM185.48 30.0301C185.446 28.5443 185.632 27.0618 186.03 25.6301C186.296 24.6338 186.832 23.7304 187.58 23.0201C188.227 22.4534 189.06 22.147 189.92 22.1601C190.171 22.1594 190.422 22.1794 190.67 22.2201C190.903 22.2591 191.134 22.3126 191.36 22.3801L191.26 25.0801C191 25.0134 190.72 24.9534 190.42 24.9001C190.149 24.8509 189.875 24.8241 189.6 24.8201C188.91 24.7909 188.232 25.0109 187.69 25.4401C187.155 25.917 186.769 26.5387 186.58 27.23C186.332 28.1421 186.214 29.0849 186.23 30.0301H185.48Z" fill="#0E93F5"/>
<path d="M199.18 36.5499C198.079 36.5583 197.001 36.2417 196.08 35.6399C195.113 35.0138 194.335 34.1356 193.83 33.0999C193.283 31.8936 193 30.5844 193 29.2599C193 27.9354 193.283 26.6262 193.83 25.4199C194.323 24.4113 195.075 23.5519 196.01 22.9299C196.902 22.3493 197.945 22.0434 199.01 22.0499C199.946 22.0279 200.867 22.2818 201.66 22.7799C202.438 23.3084 203.046 24.0519 203.41 24.9199C203.849 26.0053 204.06 27.1694 204.03 28.3399H203.09C203.111 27.6049 202.938 26.8773 202.59 26.2299C202.282 25.6842 201.833 25.2316 201.29 24.9199C200.763 24.6311 200.171 24.4798 199.57 24.4799C198.879 24.4704 198.202 24.6729 197.63 25.0599C197.03 25.4691 196.556 26.0369 196.26 26.6999C195.902 27.4977 195.727 28.3657 195.75 29.2399C195.729 30.1269 195.903 31.0076 196.26 31.8199C196.553 32.4953 197.027 33.0767 197.63 33.4999C198.158 33.8608 198.777 34.0646 199.416 34.0876C200.055 34.1106 200.687 33.9519 201.24 33.6299C201.789 33.3026 202.247 32.8416 202.57 32.2899C202.929 31.6568 203.109 30.9376 203.09 30.2099H204.03C204.069 31.4034 203.848 32.5912 203.38 33.6899C203.009 34.5535 202.403 35.2952 201.63 35.8299C200.903 36.3085 200.05 36.5592 199.18 36.5499V36.5499ZM203.56 36.1799L203.09 32.8799V16.6499H205.82V36.1999L203.56 36.1799Z" fill="#0E93F5"/>
</svg>
