<svg width="45" height="48" viewBox="0 0 45 48" fill="none" xmlns="http://www.w3.org/2000/svg">
<path d="M0 29.6845L4.07 35.4846L10.9 45.2046L12.47 47.4445C12.5817 47.6293 12.7501 47.773 12.9502 47.8541C13.1502 47.9352 13.3712 47.9494 13.58 47.8946L13.75 47.8246L16.61 46.6845L23.83 43.8145L32.6 40.3246L40.19 37.3246L43.84 35.8745C43.982 35.8434 44.1156 35.7816 44.2313 35.6935C44.347 35.6054 44.4421 35.4932 44.51 35.3646V35.3646C44.5378 35.3289 44.5582 35.2882 44.57 35.2446C44.5743 35.2013 44.5743 35.1578 44.57 35.1146C44.57 35.1146 44.57 35.1146 44.57 35.1146C44.5749 35.0747 44.5749 35.0344 44.57 34.9946C44.569 34.9779 44.569 34.9612 44.57 34.9445C44.5749 34.9114 44.5749 34.8777 44.57 34.8445C44.5748 34.8047 44.5748 34.7644 44.57 34.7245V34.6346C44.574 34.6013 44.574 34.5678 44.57 34.5345V34.5345V34.4846C44.5742 34.4682 44.5742 34.4509 44.57 34.4345V34.4345L44.5 34.3346L39.2 28.7746L30.77 19.9246L29.06 18.1245C28.94 17.5545 28.81 16.9745 28.68 16.4045C28.02 13.4045 27.36 10.4045 26.68 7.40454C26.2 5.22454 25.78 3.01454 25.24 0.844543C25.2287 0.736671 25.1982 0.631689 25.15 0.534545C25.1087 0.416875 25.0402 0.310648 24.95 0.224547V0.224547L24.86 0.15454L24.78 0.104552C24.7173 0.0663297 24.6502 0.0360986 24.58 0.0145559C24.4675 -0.00485198 24.3525 -0.00485198 24.24 0.0145559H24.15C23.9419 0.0316044 23.7485 0.128319 23.61 0.284545V0.344543C22.84 1.25454 22.08 2.16456 21.32 3.08456L15.71 9.80456L8.96 17.9045C7 20.2512 5.04333 22.5845 3.09 24.9045C2.14 26.0445 1.18 27.1746 0.239998 28.3246V28.3745V28.4445C0.131678 28.5848 0.0625607 28.7513 0.0397186 28.927C0.0168766 29.1027 0.0411333 29.2813 0.110001 29.4445C0.0601314 29.5178 0.022945 29.5989 0 29.6845V29.6845ZM9.91 40.3445L3.08 30.6245L2.78 30.1945L10.14 31.2545L10.87 31.3646C11.02 32.9246 11.17 34.4846 11.31 36.0446C11.54 38.4646 11.77 40.8945 11.99 43.3145L9.91 40.3445ZM24.38 41.4846L16.8 44.4846L15.09 45.1646L16.21 42.2545L19.33 34.3546C19.47 34.0146 19.6 33.6646 19.74 33.3546L27.43 34.1746L39.55 35.4646L33.12 38.0146L24.38 41.4846ZM26.58 16.4846C26.7 17.0546 26.83 17.6346 26.96 18.2046C26.0267 19.6579 25.0933 21.1079 24.16 22.5546L19.36 30.0146L18.67 31.0945L13.14 29.7646L13.98 27.7646C14.9467 25.4046 15.9233 23.0412 16.91 20.6746L20.48 12.0746C21.48 9.59455 22.48 7.12454 23.55 4.65454L23.82 4.00455C24.04 5.00455 24.26 6.00455 24.47 7.00455C25.21 10.1745 25.88 13.3446 26.58 16.5246V16.4846Z" fill="#0E93F5"/>
</svg>
