<svg width="190" height="36" viewBox="0 0 190 36" fill="none" xmlns="http://www.w3.org/2000/svg">
<path d="M74.2001 35.16C72.91 35.1913 71.6252 34.9845 70.41 34.55C69.4693 34.2264 68.6262 33.6689 67.9601 32.93C67.4104 32.3208 67.1043 31.5305 67.1001 30.71C67.076 30.2584 67.1649 29.808 67.3587 29.3994C67.5525 28.9908 67.8451 28.637 68.2101 28.37C69.0457 27.8032 70.0411 27.5193 71.05 27.56L72.7901 28.38C71.9897 28.3282 71.1939 28.535 70.52 28.97C70.2648 29.1521 70.0583 29.3942 69.9188 29.675C69.7793 29.9558 69.711 30.2666 69.72 30.58C69.7322 30.9506 69.8471 31.3105 70.052 31.6195C70.2568 31.9285 70.5435 32.1745 70.88 32.33C71.91 32.8379 73.0534 33.072 74.2001 33.01C75.1407 33.0304 76.0769 32.8745 76.9601 32.55C77.6626 32.3071 78.2945 31.8949 78.8 31.35C79.2079 30.92 79.4398 30.3526 79.4501 29.76C79.4562 29.5729 79.4218 29.3867 79.3493 29.2141C79.2768 29.0415 79.1679 28.8866 79.0301 28.76C78.6754 28.4655 78.2194 28.3219 77.7601 28.36H72.7601C71.9269 28.372 71.0989 28.2261 70.3201 27.93C69.6885 27.6896 69.1255 27.2982 68.6801 26.79C68.2958 26.3571 68.0825 25.7989 68.08 25.22C68.0671 24.6926 68.2367 24.1768 68.5601 23.76C68.8972 23.3402 69.3386 23.0161 69.8401 22.82C70.3914 22.6062 70.9788 22.5009 71.5701 22.51L72.1801 23.44C71.8971 23.4413 71.6176 23.5026 71.36 23.62C71.0892 23.7311 70.854 23.9145 70.6801 24.15C70.4963 24.4017 70.4045 24.7088 70.4201 25.02C70.4196 25.2152 70.4656 25.4077 70.5543 25.5816C70.643 25.7555 70.7718 25.9058 70.9301 26.02C71.483 26.342 72.1232 26.482 72.7601 26.42H77.7601C78.8844 26.3567 80.0012 26.6394 80.9601 27.23C81.3483 27.4966 81.6598 27.8603 81.8634 28.285C82.067 28.7097 82.1555 29.1804 82.1201 29.65C82.0938 30.6266 81.7418 31.5664 81.1201 32.32C80.3928 33.2268 79.4511 33.9382 78.38 34.39C77.0572 34.9406 75.6323 35.2031 74.2001 35.16V35.16ZM74.5 24.07C73.509 24.0815 72.528 23.8695 71.63 23.45C70.7995 23.0751 70.0872 22.4804 69.5701 21.73C69.0741 20.9535 68.8105 20.0514 68.8105 19.13C68.8105 18.2087 69.0741 17.3065 69.5701 16.53C70.0884 15.7784 70.8001 15.1807 71.63 14.8C72.5287 14.3836 73.5097 14.1751 74.5 14.19C75.4742 14.1761 76.4387 14.3847 77.3201 14.8C78.1419 15.189 78.8484 15.7853 79.3701 16.53C79.8732 17.3039 80.1409 18.207 80.1409 19.13C80.1409 20.053 79.8732 20.9562 79.3701 21.73C78.8478 22.4718 78.1412 23.0645 77.3201 23.45C76.4394 23.8684 75.475 24.0805 74.5 24.07V24.07ZM74.5 22.17C74.9127 22.1968 75.3263 22.1327 75.7116 21.9824C76.0968 21.8321 76.4445 21.5992 76.7301 21.3C77.2499 20.7028 77.5249 19.9313 77.5 19.14C77.5367 18.3378 77.2607 17.5527 76.7301 16.95C76.115 16.4093 75.324 16.1111 74.505 16.1111C73.6861 16.1111 72.8951 16.4093 72.2801 16.95C72.0073 17.2432 71.796 17.588 71.6586 17.9641C71.5212 18.3403 71.4605 18.7401 71.4801 19.14C71.4645 19.535 71.5272 19.9292 71.6645 20.2999C71.8018 20.6705 72.011 21.0104 72.2801 21.3C72.5657 21.5962 72.9119 21.8273 73.2951 21.9774C73.6782 22.1276 74.0892 22.1933 74.5 22.17V22.17ZM79.1201 16.37L77.86 15.76C77.8423 15.021 78.0181 14.2901 78.3701 13.64C78.7019 13.0462 79.194 12.5577 79.7901 12.23C80.4235 11.8818 81.1373 11.7059 81.86 11.72L81.69 14.33C81.0161 14.2863 80.3461 14.4616 79.7801 14.83C79.5534 15.014 79.3749 15.2503 79.2599 15.5185C79.145 15.7868 79.097 16.079 79.1201 16.37V16.37Z" fill="#12CC3E"/>
<path d="M90.2398 28.5201C89.1197 28.5356 88.0201 28.219 87.0798 27.6101C86.1188 26.9928 85.3443 26.1249 84.8398 25.1001C84.2697 23.9408 83.9851 22.6619 84.0098 21.3701C83.9713 20.0397 84.2525 18.7194 84.8298 17.5201C85.3294 16.5057 86.1016 15.6505 87.0598 15.0501C88.0188 14.4724 89.1204 14.1745 90.2398 14.1901C91.1838 14.1605 92.1188 14.3813 92.9498 14.8301C93.6936 15.2465 94.3224 15.8409 94.7798 16.5601C95.2533 17.307 95.576 18.1393 95.7298 19.0101C95.9055 19.9398 95.9358 20.8911 95.8198 21.8301H86.1598V20.2801H93.9898L93.3398 20.7001C93.3629 20.192 93.3361 19.683 93.2598 19.1801C93.1826 18.6886 93.0273 18.2126 92.7998 17.7701C92.5605 17.3544 92.2155 17.0094 91.7998 16.7701C91.3283 16.4925 90.7865 16.3571 90.2398 16.3801C89.5247 16.3501 88.8203 16.5614 88.2398 16.9801C87.6946 17.3853 87.2751 17.9366 87.0298 18.5701C86.7522 19.2631 86.6129 20.0037 86.6198 20.7501V21.8401C86.6047 22.6351 86.7404 23.4257 87.0198 24.1701C87.2477 24.8077 87.658 25.3641 88.1998 25.7701C88.7823 26.1839 89.4861 26.3915 90.1998 26.3601C90.8881 26.3844 91.5667 26.192 92.1398 25.8101C92.4128 25.6181 92.6426 25.3714 92.8148 25.0855C92.987 24.7997 93.0977 24.4811 93.1398 24.1501H95.8798C95.7571 24.9874 95.424 25.7797 94.9115 26.4531C94.3991 27.1265 93.7241 27.6587 92.9498 28.0001C92.0954 28.3694 91.1703 28.5469 90.2398 28.5201V28.5201Z" fill="#12CC3E"/>
<path d="M100.08 28.1499V14.5599H102.41L102.7 17.1099C103.076 16.2301 103.698 15.477 104.49 14.9399C105.288 14.4285 106.222 14.1673 107.17 14.1899C108.147 14.1622 109.112 14.4156 109.95 14.9199C110.718 15.4322 111.32 16.1589 111.68 17.0099C112.091 18.015 112.292 19.094 112.27 20.1799V28.1799H109.6V20.1799C109.669 19.2124 109.369 18.2546 108.76 17.4999C108.466 17.1973 108.113 16.9599 107.722 16.8031C107.33 16.6463 106.911 16.5736 106.49 16.5899C105.773 16.571 105.07 16.7889 104.49 17.2099C103.893 17.6686 103.441 18.2902 103.19 18.9999C102.859 19.9231 102.703 20.8996 102.73 21.8799V28.1499H100.08ZM118.91 28.1499V20.1499C118.979 19.1824 118.679 18.2246 118.07 17.4699C117.781 17.1668 117.431 16.9288 117.043 16.7719C116.655 16.6149 116.238 16.5427 115.82 16.5599C115.305 16.5383 114.794 16.6493 114.336 16.8822C113.877 17.1151 113.486 17.4621 113.2 17.8899C112.511 19.0399 112.186 20.3718 112.27 21.7099H111.1C111.077 20.5648 111.205 19.4218 111.48 18.3099C111.683 17.465 112.054 16.6694 112.57 15.9699C113.018 15.3818 113.606 14.9144 114.28 14.6099C114.982 14.3029 115.743 14.1495 116.51 14.1599C117.484 14.1313 118.446 14.3848 119.28 14.8899C120.054 15.3985 120.66 16.126 121.02 16.9799C121.431 17.985 121.632 19.064 121.61 20.1499V28.1499H118.91Z" fill="#12CC3E"/>
<path d="M138.51 28.5198C137.41 28.5214 136.332 28.2129 135.4 27.6298C134.423 27.0116 133.623 26.1501 133.08 25.1298C132.478 23.959 132.179 22.656 132.21 21.3398C132.169 19.9939 132.468 18.6593 133.08 17.4598C133.617 16.4533 134.419 15.6129 135.4 15.0298C136.342 14.4753 137.416 14.1851 138.51 14.1898C139.258 14.1768 140.002 14.3093 140.7 14.5798C141.306 14.81 141.865 15.1489 142.35 15.5798C142.804 16.0063 143.183 16.5067 143.47 17.0598C143.754 17.5943 143.959 18.1668 144.08 18.7598L141.35 18.8998C141.192 18.2466 140.844 17.6549 140.35 17.1998C139.843 16.762 139.19 16.5301 138.52 16.5498C137.905 16.5494 137.303 16.7303 136.79 17.0698C136.209 17.4538 135.754 17.9996 135.48 18.6398C135.112 19.477 134.938 20.3861 134.97 21.2998C134.948 22.1764 135.108 23.048 135.44 23.8599C135.703 24.508 136.143 25.0693 136.71 25.4798C137.237 25.8569 137.871 26.0565 138.52 26.0499C139.3 26.1059 140.072 25.8547 140.67 25.3498C140.916 25.0952 141.108 24.7923 141.232 24.4601C141.356 24.128 141.409 23.7738 141.39 23.4199H144.12C144.13 24.321 143.898 25.2083 143.45 25.9899C142.996 26.7634 142.334 27.3939 141.54 27.8098C140.604 28.2945 139.563 28.5386 138.51 28.5198V28.5198Z" fill="#12CC3E"/>
<path d="M152.27 28.5199C151.288 28.5554 150.313 28.3494 149.43 27.92C148.751 27.5805 148.18 27.0578 147.783 26.411C147.385 25.7642 147.176 25.0191 147.18 24.2599C147.149 23.4658 147.392 22.6852 147.87 22.05C148.364 21.4435 149.024 20.995 149.77 20.7599C150.673 20.4651 151.62 20.3232 152.57 20.34C153.281 20.3373 153.991 20.4009 154.69 20.53C155.366 20.6689 156.034 20.8459 156.69 21.06V22.65C156.101 22.4414 155.496 22.2842 154.88 22.18C154.266 22.0653 153.644 22.0051 153.02 21.9999C152.27 21.9725 151.527 22.1488 150.87 22.5099C150.582 22.6894 150.349 22.9451 150.197 23.2486C150.046 23.5522 149.981 23.8918 150.01 24.23C150.005 24.5207 150.063 24.809 150.18 25.075C150.297 25.341 150.471 25.5781 150.69 25.7699C151.294 26.2508 152.061 26.48 152.83 26.41C153.461 26.4214 154.084 26.2701 154.639 25.9706C155.194 25.671 155.663 25.2334 156 24.6999C156.284 24.2615 156.44 23.7524 156.45 23.23H157.1C157.109 24.1317 156.914 25.0238 156.53 25.84C156.161 26.6187 155.587 27.2824 154.87 27.7599C154.099 28.2691 153.193 28.5339 152.27 28.5199ZM156.82 28.15L156.48 25.03V19.3599C156.556 18.4958 156.31 17.634 155.79 16.94C155.5 16.6648 155.155 16.4547 154.777 16.3236C154.399 16.1925 153.998 16.1436 153.6 16.1799C153.085 16.1692 152.573 16.2539 152.09 16.4299C151.694 16.5777 151.347 16.8342 151.09 17.1699C150.833 17.5309 150.702 17.967 150.72 18.41H147.72C147.684 17.5395 147.945 16.6825 148.46 15.9799C148.992 15.3322 149.706 14.8585 150.51 14.62C151.511 14.3142 152.554 14.1691 153.6 14.19C154.597 14.1702 155.587 14.3539 156.51 14.7299C157.343 15.0704 158.044 15.67 158.51 16.44C159.01 17.3582 159.252 18.395 159.21 19.44V28.16L156.82 28.15Z" fill="#12CC3E"/>
<path d="M161.95 14.5601H165.03L168.82 25.8501H168.54L172.37 14.5601H175.45L170.16 28.1501H167.16L161.95 14.5601Z" fill="#12CC3E"/>
<path d="M183.54 28.5199C182.417 28.5344 181.314 28.2179 180.37 27.6099C179.414 26.9892 178.644 26.122 178.14 25.0999C177.566 23.9419 177.281 22.662 177.31 21.3699C177.271 20.0394 177.552 18.7192 178.13 17.5199C178.617 16.5043 179.386 15.6503 180.345 15.0598C181.305 14.4693 182.413 14.1674 183.54 14.1899C184.484 14.1617 185.418 14.3824 186.25 14.8299C186.991 15.2489 187.62 15.8428 188.08 16.5599C188.553 17.3068 188.876 18.1391 189.03 19.0099C189.2 19.9401 189.231 20.8907 189.12 21.8299H179.46V20.2799H187.28L186.63 20.6999C186.661 20.1922 186.638 19.6826 186.56 19.1799C186.482 18.6884 186.327 18.2124 186.1 17.7699C185.86 17.3542 185.515 17.0092 185.1 16.7699C184.628 16.4934 184.086 16.358 183.54 16.3799C182.825 16.3499 182.12 16.5612 181.54 16.9799C180.992 17.3823 180.571 17.9344 180.33 18.5699C180.052 19.2629 179.913 20.0034 179.92 20.7499V21.8399C179.906 22.6339 180.038 23.4236 180.31 24.1699C180.545 24.8034 180.954 25.3579 181.49 25.7699C182.077 26.1424 182.759 26.3403 183.455 26.3403C184.15 26.3403 184.832 26.1424 185.42 25.7699C185.691 25.5762 185.92 25.3289 186.092 25.0434C186.264 24.7579 186.375 24.4402 186.42 24.1099H189.16C189.03 24.9561 188.686 25.7549 188.16 26.4299C187.646 27.0931 186.976 27.6187 186.21 27.9599C185.371 28.3372 184.46 28.5282 183.54 28.5199V28.5199Z" fill="#12CC3E"/>
<path d="M44.4998 29.0598H44.5598C44.7096 28.9931 44.8428 28.8941 44.9498 28.7698C45.0287 28.6821 45.0959 28.5847 45.1498 28.4798C45.1552 28.4534 45.1552 28.4262 45.1498 28.3998C45.1498 28.3998 45.1498 28.3498 45.1498 28.3298V28.2398C45.1498 28.2398 45.1498 28.2398 45.1498 28.1698V28.0898C45.1722 27.9038 45.1373 27.7154 45.0498 27.5498L40.2598 18.5498L32.6298 4.1498L30.8698 0.829796C30.8679 0.806502 30.8679 0.783084 30.8698 0.759789C30.7845 0.593454 30.6611 0.449584 30.5098 0.339806C30.3976 0.270454 30.2765 0.216627 30.1498 0.179803H30.0698C29.897 0.125493 29.7127 0.11913 29.5366 0.1614C29.3605 0.20367 29.1991 0.292976 29.0698 0.419793V0.419793C28.9741 0.493704 28.8899 0.581322 28.8198 0.679803C27.4865 2.10647 26.1531 3.53313 24.8198 4.9598L18.0098 12.2498L16.9498 13.3898L8.8198 9.18981L7.5498 8.55981C7.38827 8.48815 7.21062 8.46056 7.03496 8.47988C6.8593 8.4992 6.6919 8.56473 6.5498 8.66979C6.31101 8.7945 6.12865 9.00546 6.0398 9.25979C5.98167 9.3786 5.94768 9.50776 5.9398 9.63979L4.1198 16.7098C3.10647 20.6431 2.10647 24.5731 1.1198 28.4998C0.889804 29.4098 0.6498 30.3098 0.4198 31.2198C0.4198 31.2198 0.4198 31.2798 0.4198 31.3098C0.394572 31.4453 0.394572 31.5843 0.4198 31.7198V31.8098C0.44737 32.0227 0.533969 32.2236 0.6698 32.3898L0.729805 32.4498L0.829804 32.5398C0.932029 32.6238 1.04674 32.6913 1.1698 32.7398H1.2598H1.3498H1.4698L8.4698 33.5998L19.5998 34.9498L21.9898 35.2398C22.1185 35.2654 22.2511 35.2654 22.3798 35.2398C22.5405 35.2374 22.6983 35.1962 22.8398 35.1198L29.9098 33.1198L41.6598 29.7998L44.3298 29.0498C44.3862 29.0563 44.443 29.0596 44.4998 29.0598V29.0598ZM4.4998 24.5998C5.51313 20.6665 6.51313 16.7365 7.4998 12.8098V12.6698L11.1098 18.5498L11.4698 19.1198C8.8698 21.8865 6.27647 24.6598 3.6898 27.4398C3.9998 26.4898 4.2398 25.5498 4.4798 24.6498L4.4998 24.5998ZM20.1698 28.5998L15.2498 20.5998L14.4998 19.3898C15.4998 18.2998 16.4998 17.2098 17.4998 16.1298L24.2498 19.4598L24.3498 19.5098C23.4431 23.3565 22.5365 27.2064 21.6298 31.0598C21.1598 30.2598 20.6498 29.4398 20.1498 28.6498L20.1698 28.5998ZM38.2998 23.7498L28.4298 18.8698L27.1298 18.2298C27.5098 16.5998 27.8898 14.9598 28.2798 13.3298C28.9698 10.3998 29.6598 7.45981 30.3398 4.52981C31.4398 6.58981 32.5331 8.6498 33.6198 10.7098L41.2498 25.1098L41.3298 25.2498L38.2998 23.7498Z" fill="#12CC3E"/>
</svg>
