<svg width="45" height="39" viewBox="0 0 45 39" fill="none" xmlns="http://www.w3.org/2000/svg">
<path d="M36.2017 34.1328L38.5417 25.3428L41.3617 14.7528C42.1717 11.7528 42.9917 8.6528 43.8017 5.5928C44.1917 4.1328 44.6517 2.67281 44.9717 1.20281C44.9906 1.1138 44.9906 1.02183 44.9717 0.932824C44.988 0.718873 44.9198 0.50703 44.7817 0.342797V0.342797L44.7017 0.26281C44.6231 0.171996 44.5242 0.101095 44.4129 0.0559012C44.3017 0.0107079 44.1813 -0.00750064 44.0617 0.00280063H43.9617H43.8017L39.6917 0.782799L29.4017 2.73281L16.9317 5.10281L6.15169 7.10281L0.921691 8.10281H0.831695C0.612846 8.12183 0.408265 8.21937 0.255714 8.37743C0.103162 8.5355 0.0129375 8.74344 0.00169286 8.96282C-0.00904622 9.13962 0.03148 9.31573 0.1184 9.47006C0.205319 9.62438 0.334943 9.75036 0.491698 9.83282V9.83282L2.92169 11.1628L8.7417 14.3428L15.7417 18.1928C17.7817 19.3061 19.8184 20.4195 21.8517 21.5328C22.7717 22.0328 23.6717 22.5828 24.6117 23.0428L27.5317 28.0428C29.1517 30.7761 30.765 33.5061 32.3717 36.2328L33.4817 38.1028C33.5935 38.2357 33.7403 38.3346 33.9055 38.3883C34.0706 38.442 34.2475 38.4485 34.4161 38.4068C34.5848 38.3652 34.7383 38.2772 34.8595 38.1528C34.9807 38.0283 35.0646 37.8725 35.1017 37.7028C35.5817 36.5728 35.8717 35.3528 36.2017 34.1328ZM15.5817 7.2228L28.0517 4.85281L38.8417 2.85281L41.6417 2.32281L38.3417 6.07281L37.3417 7.20281L32.8717 12.2828L31.8217 13.4828L31.7617 13.5428L29.1817 13.0828L21.7217 11.7728L12.7217 10.2028L5.9917 9.02282L15.5817 7.2228ZM27.1817 23.7828L26.4317 22.5128C28.085 20.6061 29.7317 18.6928 31.3717 16.7728C31.4317 17.3228 31.4817 17.8728 31.5317 18.4228C31.6817 20.0228 31.8417 21.6228 31.9917 23.2228L32.6217 29.8228C32.7417 31.0828 32.8517 32.3328 32.9717 33.5928L31.9717 31.9728L27.1817 23.7828Z" fill="#EC0EF5"/>
</svg>
