<svg width="45" height="47" viewBox="0 0 45 47" fill="none" xmlns="http://www.w3.org/2000/svg">
<path d="M0.395409 35.0851C0.423974 35.1121 0.458109 35.1326 0.495416 35.1451V35.1451H0.645409H0.715417C2.21542 35.6251 3.71542 36.0351 5.24542 36.4751L14.6154 39.2451L25.4154 42.425L34.3454 45.0551L38.0854 46.165C38.2431 46.2113 38.4107 46.2114 38.5685 46.1653C38.7262 46.1192 38.8674 46.0289 38.9754 45.9051L39.0254 45.8451C39.0998 45.7415 39.1572 45.6267 39.1954 45.5051C39.4354 44.7151 39.6654 43.9251 39.9054 43.1351C40.9187 39.7151 41.9187 36.2951 42.9054 32.8751C43.5321 30.7351 44.1687 28.5917 44.8154 26.4451C44.8354 26.3427 44.8354 26.2374 44.8154 26.1351C44.8103 25.9845 44.7617 25.8386 44.6754 25.7151V25.7151V25.6351C44.0054 24.6351 43.2254 23.6351 42.5154 22.6351C41.0087 20.5351 39.5054 18.4317 38.0054 16.3251L32.7654 9.00507L28.4554 3.00507L26.6554 0.475099C26.5569 0.342695 26.4306 0.233462 26.2854 0.155091C26.1088 0.0296794 25.8905 -0.0226436 25.6763 0.00903407C25.462 0.0407118 25.2682 0.153924 25.1354 0.325074V0.385072C24.7854 0.795072 24.4754 1.25506 24.1354 1.68506L22.1354 4.42505L15.9354 12.6951L8.73541 22.3151L2.73541 30.3151L0.25541 33.6951C0.114363 33.8524 0.0267779 34.0504 0.00521928 34.2606C-0.0163393 34.4708 0.0292418 34.6824 0.135415 34.8651C0.179895 34.9294 0.2301 34.9897 0.285416 35.045L0.395409 35.0851ZM23.5554 5.7851C23.0887 7.41843 22.6121 9.04838 22.1254 10.675L19.8954 18.3351C19.2754 20.4451 18.6654 22.555 18.0454 24.665C17.8354 25.385 17.6254 26.1051 17.4254 26.8151L15.8254 27.4451L6.55541 31.105L3.77541 32.1951L4.77541 30.8751L11.0054 22.5651L18.2154 12.9451L23.5554 5.7851ZM37.9054 43.6351L36.5554 42.4451L25.7254 32.8751L20.6354 28.3851H21.4154L35.3354 27.7151L42.7554 27.3651L42.4254 28.4751C41.4054 31.8951 40.4054 35.315 39.4254 38.735C38.8921 40.355 38.3821 41.9884 37.8954 43.6351H37.9054Z" fill="#E5C10E"/>
</svg>
