<svg width="45" height="42" viewBox="0 0 45 42" fill="none" xmlns="http://www.w3.org/2000/svg">
<path d="M44.7239 28.7535C44.7832 28.689 44.8306 28.6146 44.8639 28.5335V28.5335C44.8682 28.4936 44.8682 28.4534 44.8639 28.4135C44.8701 28.3974 44.8701 28.3796 44.8639 28.3635C44.9143 28.2109 44.9143 28.0461 44.8639 27.8935C44.5039 26.9835 44.1539 26.0735 43.8039 25.1635L41.2539 18.6035C40.2539 15.9435 39.1839 13.2835 38.1539 10.6035L35.5139 3.72353C35.0839 2.61353 34.6739 1.48351 34.2139 0.393508V0.323501C34.1975 0.291292 34.1773 0.261126 34.1539 0.233535L34.0939 0.143508C34.0258 0.0840238 33.948 0.0366548 33.8639 0.0034935H33.7739H33.7139H33.5139C33.292 -0.0162206 33.0708 0.0480016 32.8939 0.183486C32.8406 0.214999 32.7932 0.255608 32.7539 0.303481L27.3839 5.80348L18.8439 14.5535L17.1139 16.3235L16.6839 16.4235L14.0439 17.0135L5.96392 18.8235L2.51392 19.3935C1.96392 19.5235 1.39392 19.6235 0.853919 19.7635C0.739178 19.7721 0.627161 19.8027 0.523925 19.8535C0.42203 19.8944 0.330053 19.9566 0.254165 20.0359C0.178277 20.1152 0.120231 20.2099 0.0839228 20.3135C0.0580016 20.3748 0.0379153 20.4384 0.0239253 20.5035V20.5035C-0.0102383 20.6336 -0.007772 20.7707 0.0310511 20.8995C0.0698743 21.0283 0.143545 21.1439 0.243926 21.2335L2.79392 23.2335L8.88393 28.1035L16.2739 34.0135L22.6339 39.1035C23.6339 39.9335 24.6939 40.7835 25.7439 41.5935L25.8839 41.6835C26.0131 41.7526 26.1574 41.7888 26.3039 41.7888C26.4505 41.7888 26.5947 41.7526 26.7239 41.6835C26.8373 41.6348 26.9394 41.5633 27.0239 41.4735L32.8139 37.2535L42.3039 30.3335L44.3839 28.8135C44.471 28.7681 44.549 28.7071 44.6139 28.6335V28.6335L44.7239 28.7535ZM36.1639 10.2335C37.1639 12.8935 38.2339 15.5435 39.2639 18.2335L41.9339 25.0935L42.5939 26.8035L38.8839 25.6535L30.3139 23.0035L29.2339 22.6635L30.8239 15.7735C31.7439 11.7735 32.6706 7.7402 33.6039 3.67354L36.1639 10.2335ZM6.81393 20.1835L15.8139 18.1835L17.4239 17.8235L26.5339 23.2535L27.2339 23.6635C26.9539 25.0035 26.6839 26.3335 26.4139 27.6635L24.6339 27.1035L18.3739 25.1035L10.8439 22.7435L4.29392 20.7435L6.81393 20.1835ZM28.0939 38.7135L27.3739 39.2335C27.5239 36.3235 27.6839 33.4035 27.8339 30.4935V29.6535L32.8339 29.4635L41.1639 29.1535L37.5339 31.7935L28.0939 38.7135Z" fill="#F75D19"/>
</svg>
