<svg width="165" height="43" viewBox="0 0 165 43" fill="none" xmlns="http://www.w3.org/2000/svg">
<path d="M67.0996 34.4899V20.8499H69.8196V34.4899H67.0996ZM69.0496 28.4099C69.0134 26.9444 69.1954 25.4817 69.5896 24.0698C69.8447 23.0822 70.3753 22.1874 71.1196 21.4899C71.7554 20.9263 72.5801 20.6228 73.4296 20.6398C73.6775 20.6387 73.9251 20.6588 74.1696 20.6998C74.3996 20.6998 74.6296 20.7899 74.8496 20.8499L74.7496 23.5198C74.4996 23.4598 74.2196 23.3999 73.9296 23.3499C73.6622 23.3012 73.3913 23.2745 73.1196 23.2698C72.4335 23.2376 71.7587 23.4542 71.2196 23.8798C70.6924 24.3517 70.3137 24.9667 70.1296 25.6499C69.8809 26.5483 69.7631 27.4778 69.7796 28.4099H69.0496Z" fill="#F75D19"/>
<path d="M82.5496 34.8597C81.4303 34.8693 80.3324 34.5531 79.3896 33.9497C78.4312 33.3293 77.6574 32.4623 77.1496 31.4397C76.5794 30.2803 76.2948 29.0014 76.3196 27.7097C76.286 26.3797 76.567 25.0606 77.1396 23.8597C77.6288 22.8457 78.3983 21.993 79.3572 21.4028C80.316 20.8127 81.4239 20.5097 82.5496 20.5297C83.4966 20.5017 84.4344 20.7223 85.2696 21.1697C86.0104 21.5864 86.6359 22.1809 87.0896 22.8997C87.563 23.6466 87.8857 24.4789 88.0396 25.3497C88.2187 26.2789 88.2524 27.2302 88.1396 28.1697H78.4696V26.6497H86.2996L85.6496 27.0697C85.6779 26.5616 85.651 26.052 85.5696 25.5497C85.497 25.0571 85.3414 24.5804 85.1096 24.1397C84.8879 23.7275 84.5599 23.3822 84.1596 23.1397C83.6876 22.8632 83.1462 22.7278 82.5996 22.7497C81.8865 22.7236 81.1843 22.9307 80.5996 23.3397C80.0616 23.7523 79.6439 24.3013 79.3896 24.9297C79.1129 25.6265 78.9737 26.3701 78.9796 27.1197V28.1997C78.9686 28.9976 79.1042 29.7908 79.3796 30.5397C79.614 31.1738 80.0231 31.7285 80.5596 32.1397C81.142 32.5535 81.8458 32.7611 82.5596 32.7297C83.2678 32.764 83.9685 32.5713 84.5596 32.1797C84.822 31.9817 85.0415 31.7325 85.2048 31.4471C85.3681 31.1618 85.4718 30.8463 85.5096 30.5197H88.2496C88.1203 31.3659 87.776 32.1647 87.2496 32.8397C86.7244 33.512 86.0359 34.0387 85.2496 34.3697C84.3944 34.7224 83.4741 34.8895 82.5496 34.8597V34.8597Z" fill="#F75D19"/>
<path d="M91.02 22.7198V20.8998H98.52V22.7198H91.02ZM93.15 34.4898V18.9898C93.1137 18.1867 93.3043 17.3896 93.7 16.6898C94.038 16.1211 94.5399 15.668 95.14 15.3898C95.7656 15.0971 96.4494 14.9501 97.14 14.9598C97.5682 14.9609 97.9959 14.991 98.42 15.0498C98.8551 15.1041 99.2861 15.1876 99.71 15.2998L99.2 17.3898C98.9392 17.2966 98.6718 17.2231 98.4 17.1698C98.1475 17.1115 97.8892 17.0812 97.63 17.0798C97.3396 17.0835 97.052 17.1377 96.78 17.2398C96.5002 17.3611 96.2657 17.5675 96.11 17.8298C95.9172 18.1992 95.8273 18.6137 95.85 19.0298V34.4898H93.15ZM103.92 17.9998C103.689 18.0129 103.458 17.98 103.24 17.9027C103.022 17.8254 102.821 17.7055 102.65 17.5498C102.497 17.3912 102.378 17.2029 102.3 16.9965C102.223 16.79 102.189 16.57 102.2 16.3498C102.189 16.1342 102.224 15.9188 102.301 15.7173C102.379 15.5158 102.498 15.3327 102.65 15.1798C103.001 14.8764 103.457 14.7221 103.92 14.7498C104.377 14.7231 104.826 14.8776 105.17 15.1798C105.326 15.3307 105.447 15.5132 105.527 15.715C105.606 15.9168 105.641 16.1332 105.63 16.3498C105.642 16.5709 105.608 16.7922 105.528 16.999C105.449 17.2058 105.327 17.3935 105.17 17.5498C105.002 17.7044 104.805 17.8238 104.591 17.9011C104.376 17.9784 104.148 18.0119 103.92 17.9998V17.9998ZM102.58 34.4898V20.8498H105.26V34.4898H102.58Z" fill="#F75D19"/>
<path d="M111.17 34.4901V20.9001H113.5L113.85 23.8301V34.4901H111.17ZM120.69 34.4901V26.4901C120.759 25.5227 120.459 24.5648 119.85 23.8101C119.559 23.5038 119.206 23.264 118.814 23.107C118.423 22.9499 118.001 22.8793 117.58 22.9001C116.863 22.8812 116.16 23.0991 115.58 23.5201C114.983 23.9788 114.531 24.6004 114.28 25.3101C113.948 26.233 113.792 27.2098 113.82 28.1901H112.82C112.785 26.7569 113.002 25.3287 113.46 23.9701C113.81 22.9444 114.453 22.0439 115.31 21.3801C116.148 20.7795 117.159 20.4703 118.19 20.5001C119.168 20.4661 120.135 20.72 120.97 21.2301C121.791 21.7288 122.437 22.4694 122.82 23.3501C123.232 24.355 123.433 25.4341 123.41 26.5201V34.5201L120.69 34.4901Z" fill="#F75D19"/>
<path d="M133.34 34.8598C132.217 34.8707 131.116 34.5545 130.17 33.9497C129.212 33.3293 128.438 32.4623 127.93 31.4397C127.363 30.2795 127.082 29.0007 127.11 27.7097C127.071 26.3793 127.353 25.059 127.93 23.8598C128.417 22.8441 129.186 21.9901 130.146 21.3996C131.105 20.8092 132.214 20.5072 133.34 20.5297C134.284 20.5016 135.218 20.7223 136.05 21.1698C136.791 21.5864 137.416 22.1809 137.87 22.8997C138.356 23.6454 138.695 24.4769 138.87 25.3497C139.041 26.28 139.071 27.2305 138.96 28.1698H129.29V26.6497H137.12L136.47 27.0697C136.498 26.5617 136.471 26.0521 136.39 25.5498C136.317 25.0572 136.162 24.5804 135.93 24.1397C135.708 23.7275 135.38 23.3822 134.98 23.1397C134.508 22.8632 133.967 22.7278 133.42 22.7497C132.707 22.725 132.005 22.9321 131.42 23.3397C130.882 23.7501 130.467 24.3 130.22 24.9298C129.938 25.6251 129.799 26.3697 129.81 27.1197V28.1997C129.796 28.997 129.928 29.7902 130.2 30.5398C130.438 31.172 130.846 31.7258 131.38 32.1397C131.963 32.5514 132.666 32.7588 133.38 32.7298C134.068 32.754 134.747 32.5616 135.32 32.1798C135.582 31.9817 135.802 31.7325 135.965 31.4472C136.128 31.1618 136.232 30.8463 136.27 30.5197H139.01C138.881 31.3659 138.536 32.1648 138.01 32.8397C137.485 33.512 136.796 34.0387 136.01 34.3697C135.165 34.7197 134.255 34.8868 133.34 34.8598Z" fill="#F75D19"/>
<path d="M143.17 34.4901V20.8501H145.82V34.4901H143.17ZM145.17 28.4101C145.131 26.9439 145.317 25.4803 145.72 24.0701C145.976 23.085 146.502 22.1913 147.24 21.4901C147.878 20.9299 148.701 20.6269 149.55 20.6401C149.798 20.6385 150.045 20.6586 150.29 20.7001L150.98 20.8501L150.88 23.5201C150.63 23.4601 150.35 23.4001 150.05 23.3501C149.783 23.3006 149.512 23.2738 149.24 23.2701C148.557 23.2393 147.886 23.4559 147.35 23.8801C146.82 24.3493 146.44 24.9653 146.26 25.6501C146.006 26.5475 145.888 27.4778 145.91 28.4101H145.17Z" fill="#F75D19"/>
<path d="M151.59 20.8999H154.59L158.69 32.1399H158.14L161.43 20.8999H164.17L159.02 37.0999C158.68 38.3274 158.057 39.4579 157.2 40.3999C156.834 40.7612 156.4 41.0449 155.922 41.2339C155.444 41.423 154.933 41.5134 154.42 41.4999C153.818 41.5021 153.219 41.4214 152.64 41.2599C152.033 41.0848 151.447 40.8469 150.89 40.5499V38.1299C151.34 38.4585 151.835 38.7212 152.36 38.9099C152.833 39.0705 153.33 39.1516 153.83 39.1499C154.307 39.1579 154.772 38.9947 155.14 38.6899C155.526 38.3562 155.836 37.9437 156.05 37.4799C156.31 36.9481 156.527 36.3963 156.7 35.8299L157.11 34.4899L151.59 20.8999Z" fill="#F75D19"/>
<path d="M45.0296 29.0098C45.0889 28.9454 45.1363 28.8709 45.1696 28.7899V28.7899C45.1739 28.75 45.1739 28.7098 45.1696 28.6699C45.1757 28.6538 45.1757 28.6359 45.1696 28.6198C45.2199 28.4672 45.2199 28.3025 45.1696 28.1499C44.8096 27.2399 44.4596 26.3299 44.1096 25.4199L41.5596 18.8599C40.5596 16.1999 39.4896 13.5399 38.4596 10.8599L35.8196 3.97987C35.3896 2.86987 34.9796 1.73986 34.5196 0.649856V0.579848C34.5031 0.547639 34.483 0.517474 34.4596 0.489883L34.3996 0.399856C34.3315 0.340371 34.2537 0.293002 34.1696 0.259841H34.0796H34.0196H33.8196C33.5977 0.240127 33.3764 0.304349 33.1996 0.439834C33.1463 0.471346 33.0989 0.511956 33.0596 0.559829L27.6896 6.05983L19.1496 14.8098L17.4196 16.5798L16.9896 16.6799L14.3496 17.2699L6.26958 19.0798L2.81959 19.6499C2.26959 19.7799 1.69958 19.8799 1.15958 20.0199C1.04484 20.0285 0.932825 20.0591 0.829589 20.1099C0.727694 20.1508 0.635717 20.2129 0.559829 20.2923C0.483941 20.3716 0.425895 20.4662 0.389587 20.5698C0.363666 20.6311 0.343579 20.6948 0.329589 20.7598V20.7598C0.295426 20.89 0.297892 21.027 0.336715 21.1558C0.375538 21.2847 0.449209 21.4003 0.549591 21.4899L3.09959 23.4899L9.18959 28.3599L16.5796 34.2699L22.9396 39.3599C23.9396 40.1899 24.9996 41.0399 26.0496 41.8499L26.1896 41.9398C26.3188 42.009 26.4631 42.0452 26.6096 42.0452C26.7561 42.0452 26.9004 42.009 27.0296 41.9398C27.1429 41.8911 27.245 41.8197 27.3296 41.7299L33.1196 37.5098L42.6096 30.5899L44.6896 29.0698C44.7767 29.0245 44.8546 28.9635 44.9196 28.8898V28.8898L45.0296 29.0098ZM36.4696 10.4899C37.4696 13.1499 38.5396 15.7999 39.5696 18.4899L42.2396 25.3499L42.8996 27.0598L39.1896 25.9099L30.6196 23.2598L29.5396 22.9199L31.1296 16.0299C32.0496 12.0299 32.9763 7.99655 33.9096 3.92989L36.4696 10.4899ZM7.11959 20.4398L16.1196 18.4398L17.7296 18.0798L26.8396 23.5098L27.5396 23.9199C27.2596 25.2599 26.9896 26.5899 26.7196 27.9199L24.9396 27.3599L18.6796 25.3599L11.1496 22.9998L4.59959 20.9998L7.11959 20.4398ZM28.3996 38.9699L27.6796 39.4899C27.8296 36.5799 27.9896 33.6598 28.1396 30.7498V29.9099L33.1396 29.7199L41.4696 29.4099L37.8396 32.0499L28.3996 38.9699Z" fill="#F75D19"/>
</svg>
