<svg width="20" height="19" viewBox="0 0 20 19" fill="none" xmlns="http://www.w3.org/2000/svg">
<path d="M10 12C11.6569 12 13 10.6569 13 9C13 7.34315 11.6569 6 10 6C8.34315 6 7 7.34315 7 9C7 10.6569 8.34315 12 10 12Z" stroke="#C0C4D3" stroke-width="1.5" stroke-linecap="round" stroke-linejoin="round"/>
<path d="M17.1111 7.22222H16.5867C16.4029 7.22149 16.2239 7.16383 16.0743 7.05718C15.9246 6.95053 15.8117 6.80012 15.7511 6.62667C15.672 6.46018 15.6466 6.27321 15.6785 6.09167C15.7103 5.91012 15.7979 5.74296 15.9289 5.61333L16.2933 5.24889C16.3766 5.16626 16.4428 5.06794 16.4879 4.95962C16.533 4.8513 16.5563 4.73512 16.5563 4.61778C16.5563 4.50043 16.533 4.38425 16.4879 4.27593C16.4428 4.16761 16.3766 4.0693 16.2933 3.98667L15.0311 2.71556C14.9485 2.63224 14.8502 2.56611 14.7418 2.52099C14.6335 2.47586 14.5173 2.45262 14.4 2.45262C14.2827 2.45262 14.1665 2.47586 14.0582 2.52099C13.9498 2.56611 13.8515 2.63224 13.7689 2.71556L13.4044 3.08C13.2748 3.21104 13.1077 3.29854 12.9261 3.33039C12.7446 3.36224 12.5576 3.33687 12.3911 3.25778C12.2129 3.19967 12.0576 3.08671 11.9475 2.93505C11.8373 2.78338 11.7779 2.60078 11.7778 2.41333V1.88889C11.7778 1.65314 11.6841 1.42705 11.5174 1.26035C11.3507 1.09365 11.1246 1 10.8889 1H9.11111C8.87536 1 8.64927 1.09365 8.48257 1.26035C8.31587 1.42705 8.22222 1.65314 8.22222 1.88889V2.41333C8.22149 2.59708 8.16383 2.77609 8.05718 2.92572C7.95053 3.07535 7.80012 3.18825 7.62667 3.24889V3.24889C7.46018 3.32798 7.27321 3.35335 7.09167 3.3215C6.91012 3.28965 6.74296 3.20215 6.61333 3.07111L6.24889 2.70667C6.16626 2.62335 6.06794 2.55722 5.95962 2.5121C5.8513 2.46697 5.73512 2.44373 5.61778 2.44373C5.50043 2.44373 5.38425 2.46697 5.27593 2.5121C5.16761 2.55722 5.0693 2.62335 4.98667 2.70667L3.71556 3.96889C3.63224 4.05152 3.56611 4.14983 3.52099 4.25815C3.47586 4.36647 3.45262 4.48266 3.45262 4.6C3.45262 4.71734 3.47586 4.83353 3.52099 4.94185C3.56611 5.05017 3.63224 5.14848 3.71556 5.23111L4.08 5.59556C4.21104 5.72518 4.29854 5.89234 4.33039 6.07389C4.36224 6.25544 4.33687 6.4424 4.25778 6.60889C4.19714 6.78235 4.08424 6.93275 3.93461 7.0394C3.78498 7.14605 3.60597 7.20371 3.42222 7.20444H2.88889C2.65314 7.20444 2.42705 7.29809 2.26035 7.46479C2.09365 7.63149 2 7.85758 2 8.09333V9.87111C2 10.1069 2.09365 10.333 2.26035 10.4997C2.42705 10.6663 2.65314 10.76 2.88889 10.76H3.41333C3.59708 10.7607 3.77609 10.8184 3.92572 10.925C4.07535 11.0317 4.18825 11.1821 4.24889 11.3556V11.3556C4.32798 11.522 4.35335 11.709 4.3215 11.8906C4.28965 12.0721 4.20215 12.2393 4.07111 12.3689L3.70667 12.7333C3.62335 12.816 3.55722 12.9143 3.5121 13.0226C3.46697 13.1309 3.44373 13.2471 3.44373 13.3644C3.44373 13.4818 3.46697 13.598 3.5121 13.7063C3.55722 13.8146 3.62335 13.9129 3.70667 13.9956L4.96 15.2489C5.04263 15.3322 5.14095 15.3983 5.24927 15.4435C5.35758 15.4886 5.47377 15.5118 5.59111 15.5118C5.70845 15.5118 5.82464 15.4886 5.93296 15.4435C6.04128 15.3983 6.13959 15.3322 6.22222 15.2489L6.58667 14.8844C6.71629 14.7534 6.88345 14.6659 7.065 14.6341C7.24655 14.6022 7.43351 14.6276 7.6 14.7067C7.77346 14.7673 7.92386 14.8802 8.03051 15.0298C8.13716 15.1795 8.19482 15.3585 8.19556 15.5422V16.1111C8.19556 16.3469 8.28921 16.573 8.45591 16.7397C8.6226 16.9064 8.8487 17 9.08444 17H10.8622C11.098 17 11.3241 16.9064 11.4908 16.7397C11.6575 16.573 11.7511 16.3469 11.7511 16.1111V15.5867C11.7518 15.4029 11.8095 15.2239 11.9162 15.0743C12.0228 14.9246 12.1732 14.8117 12.3467 14.7511C12.5132 14.672 12.7001 14.6466 12.8817 14.6785C13.0632 14.7103 13.2304 14.7979 13.36 14.9289L13.7244 15.2933C13.8071 15.3766 13.9054 15.4428 14.0137 15.4879C14.122 15.533 14.2382 15.5563 14.3556 15.5563C14.4729 15.5563 14.5891 15.533 14.6974 15.4879C14.8057 15.4428 14.904 15.3766 14.9867 15.2933L16.24 14.04C16.3233 13.9574 16.3894 13.8591 16.4346 13.7507C16.4797 13.6424 16.5029 13.5262 16.5029 13.4089C16.5029 13.2915 16.4797 13.1754 16.4346 13.067C16.3894 12.9587 16.3233 12.8604 16.24 12.7778L15.8756 12.4133C15.7445 12.2837 15.657 12.1165 15.6252 11.935C15.5933 11.7535 15.6187 11.5665 15.6978 11.4V11.4C15.7584 11.2265 15.8713 11.0761 16.0209 10.9695C16.1706 10.8628 16.3496 10.8052 16.5333 10.8044H17.1111C17.3469 10.8044 17.573 10.7108 17.7397 10.5441C17.9064 10.3774 18 10.1513 18 9.91556V8.11111C18 7.87536 17.9064 7.64927 17.7397 7.48257C17.573 7.31587 17.3469 7.22222 17.1111 7.22222Z" stroke="#C0C4D3" stroke-width="1.5" stroke-linecap="round" stroke-linejoin="round"/>
</svg>
