<svg width="16" height="16" viewBox="0 0 16 16" fill="none" xmlns="http://www.w3.org/2000/svg">
<g clip-path="url(#clip0)">
<path d="M0.993192 8.98401C0.775967 8.98379 0.564577 9.05431 0.390992 9.18491C0.217407 9.3155 0.0910666 9.49907 0.0310769 9.70785C-0.0289128 9.91662 -0.0192889 10.1393 0.0584932 10.3421C0.136275 10.5449 0.277985 10.7169 0.462192 10.832L3.15019 13.52C3.2431 13.6129 3.35339 13.6865 3.47476 13.7367C3.59613 13.7869 3.7262 13.8128 3.85755 13.8127C3.98889 13.8127 4.11895 13.7868 4.24028 13.7364C4.36161 13.6861 4.47185 13.6124 4.56469 13.5195C4.65754 13.4266 4.73117 13.3163 4.78139 13.1949C4.83162 13.0736 4.85744 12.9435 4.85739 12.8122C4.85735 12.6808 4.83143 12.5508 4.78112 12.4294C4.73082 12.3081 4.6571 12.1979 4.56419 12.105L3.44319 10.985H10.9932C11.2584 10.985 11.5128 10.8797 11.7003 10.6921C11.8878 10.5046 11.9932 10.2502 11.9932 9.98501C11.9932 9.71979 11.8878 9.46544 11.7003 9.2779C11.5128 9.09037 11.2584 8.98501 10.9932 8.98501H0.993192V8.98401Z" fill="white"/>
<path d="M0.993192 8.98401C0.775967 8.98379 0.564577 9.05431 0.390992 9.18491C0.217407 9.3155 0.0910666 9.49907 0.0310769 9.70785C-0.0289128 9.91662 -0.0192889 10.1393 0.0584932 10.3421C0.136275 10.5449 0.277985 10.7169 0.462192 10.832L3.15019 13.52C3.2431 13.6129 3.35339 13.6865 3.47476 13.7367C3.59613 13.7869 3.7262 13.8128 3.85755 13.8127C3.98889 13.8127 4.11895 13.7868 4.24028 13.7364C4.36161 13.6861 4.47185 13.6124 4.56469 13.5195C4.65754 13.4266 4.73117 13.3163 4.78139 13.1949C4.83162 13.0736 4.85744 12.9435 4.85739 12.8122C4.85735 12.6808 4.83143 12.5508 4.78112 12.4294C4.73082 12.3081 4.6571 12.1979 4.56419 12.105L3.44319 10.985H10.9932C11.2584 10.985 11.5128 10.8797 11.7003 10.6921C11.8878 10.5046 11.9932 10.2502 11.9932 9.98501C11.9932 9.71979 11.8878 9.46544 11.7003 9.2779C11.5128 9.09037 11.2584 8.98501 10.9932 8.98501H0.993192V8.98401Z" fill="#C0C4D3"/>
<path d="M15.0068 7.01596C15.2241 7.01618 15.4354 6.94566 15.609 6.81506C15.7826 6.68447 15.909 6.5009 15.9689 6.29212C16.0289 6.08334 16.0193 5.86071 15.9415 5.65789C15.8638 5.45507 15.722 5.28309 15.5378 5.16796L12.8498 2.47996C12.6622 2.29245 12.4078 2.18716 12.1425 2.18726C11.8772 2.18735 11.6228 2.29282 11.4353 2.48046C11.2478 2.6681 11.1425 2.92254 11.1426 3.18781C11.1427 3.45308 11.2482 3.70745 11.4358 3.89496L12.5568 5.01496H5.00684C4.74162 5.01496 4.48727 5.12031 4.29973 5.30785C4.11219 5.49539 4.00684 5.74974 4.00684 6.01496C4.00684 6.28018 4.11219 6.53453 4.29973 6.72207C4.48727 6.9096 4.74162 7.01496 5.00684 7.01496H15.0068V7.01596Z" fill="white"/>
<path d="M15.0068 7.01596C15.2241 7.01618 15.4354 6.94566 15.609 6.81506C15.7826 6.68447 15.909 6.5009 15.9689 6.29212C16.0289 6.08334 16.0193 5.86071 15.9415 5.65789C15.8638 5.45507 15.722 5.28309 15.5378 5.16796L12.8498 2.47996C12.6622 2.29245 12.4078 2.18716 12.1425 2.18726C11.8772 2.18735 11.6228 2.29282 11.4353 2.48046C11.2478 2.6681 11.1425 2.92254 11.1426 3.18781C11.1427 3.45308 11.2482 3.70745 11.4358 3.89496L12.5568 5.01496H5.00684C4.74162 5.01496 4.48727 5.12031 4.29973 5.30785C4.11219 5.49539 4.00684 5.74974 4.00684 6.01496C4.00684 6.28018 4.11219 6.53453 4.29973 6.72207C4.48727 6.9096 4.74162 7.01496 5.00684 7.01496H15.0068V7.01596Z" fill="#C0C4D3"/>
</g>
<defs>
<clipPath id="clip0">
<rect width="16" height="16" fill="white"/>
</clipPath>
</defs>
</svg>
